<?xml version="1.0" encoding="UTF-8" standalone="no"?>
<!-- Created with Inkscape (http://www.inkscape.org/) -->

<svg
   xmlns:dc="http://purl.org/dc/elements/1.1/"
   xmlns:cc="http://creativecommons.org/ns#"
   xmlns:rdf="http://www.w3.org/1999/02/22-rdf-syntax-ns#"
   xmlns:svg="http://www.w3.org/2000/svg"
   xmlns="http://www.w3.org/2000/svg"
   xmlns:sodipodi="http://sodipodi.sourceforge.net/DTD/sodipodi-0.dtd"
   xmlns:inkscape="http://www.inkscape.org/namespaces/inkscape"
   width="210mm"
   height="297mm"
   viewBox="0 0 210 297"
   version="1.1"
   id="svg8"
   sodipodi:docname="logo1.svg"
   inkscape:version="0.92.3 (2405546, 2018-03-11)">
  <defs
     id="defs2">
    <inkscape:path-effect
       effect="bspline"
       id="path-effect3722"
       is_visible="true"
       weight="33.333333"
       steps="2"
       helper_size="0"
       apply_no_weight="true"
       apply_with_weight="true"
       only_selected="false" />
  </defs>
  <sodipodi:namedview
     id="base"
     pagecolor="#ffffff"
     bordercolor="#666666"
     borderopacity="1.0"
     inkscape:pageopacity="0.0"
     inkscape:pageshadow="2"
     inkscape:zoom="0.44348057"
     inkscape:cx="504.38946"
     inkscape:cy="585.77098"
     inkscape:document-units="mm"
     inkscape:current-layer="layer1"
     showgrid="false"
     inkscape:window-width="1366"
     inkscape:window-height="705"
     inkscape:window-x="-8"
     inkscape:window-y="-8"
     inkscape:window-maximized="1" />
  <metadata
     id="metadata5">
    <rdf:RDF>
      <cc:Work
         rdf:about="">
        <dc:format>image/svg+xml</dc:format>
        <dc:type
           rdf:resource="http://purl.org/dc/dcmitype/StillImage" />
        <dc:title></dc:title>
      </cc:Work>
    </rdf:RDF>
  </metadata>
  <g
     inkscape:label="Capa 1"
     inkscape:groupmode="layer"
     id="layer1">
    <ellipse
       style="fill:#00ff00;stroke-width:0.26458332"
       id="path3765"
       cx="107.34524"
       cy="65.022987"
       rx="86.934525"
       ry="55.184521" />
    <path
       id="path3769"
       transform="scale(0.26458333)"
       style="fill:none;stroke:#000000;stroke-width:0.99999994px;stroke-linecap:butt;stroke-linejoin:miter;stroke-opacity:1"
       d="m -675.41797,908.75391 c 0.33987,0.80805 0.70809,1.59461 1.13281,2.33789 0.66845,1.16978 1.3149,2.2726 1.95313,3.35351 1.14859,-0.94334 2.31569,-1.86124 3.55859,-2.67578 0.99137,-0.6497 1.94455,-1.24316 2.88282,-1.81055 -3.15754,-0.41708 -6.34715,-0.80593 -9.52735,-1.20507 z" />
    <path
       style="fill:none;stroke:#000000;stroke-width:0.26458332px;stroke-linecap:butt;stroke-linejoin:miter;stroke-opacity:1"
       d="m 52.160714,38.564661 c 8.063492,0 16.126984,0 24.190476,0 1.511903,0 3.023809,0 4.535715,0 0.251984,0 0.57777,-0.17818 0.755951,0 0.178179,0.17818 0,0.50397 0,0.75595 0,2.51985 0,5.03969 0,7.55953 0,3.02381 0,6.04762 0,9.07143 0,0.13109 -0.0785,5.13466 0,5.29166 0.15937,0.31874 0.643261,0.41788 0.755952,0.75595 0.159369,0.47811 0.503968,1.51191 0,1.51191 -0.503968,0 -0.356359,-1.86826 0,-1.51191 0.936326,0.93633 0.755952,2.58088 0.755952,3.77977 0,0.25198 -0.178179,0.57777 0,0.75595 1.007938,1.00794 0.755954,-1.25992 0.755954,0.75595 0,2.51984 0,5.03968 0,7.55953 0,0.82542 0.16296,3.29088 0,3.77976 -0.178181,0.53454 -0.577773,0.97736 -0.755954,1.5119 -0.07968,0.23906 0.178181,0.57778 0,0.75596 -0.178179,0.17817 -0.577771,-0.17818 -0.755952,0 -0.178178,0.17817 0.112691,0.53057 0,0.75595 -0.159369,0.31874 -0.596582,0.43721 -0.755952,0.75595 -0.112691,0.22538 0.112692,0.53057 0,0.75595 -0.100356,0.20072 -2.067144,2.1675 -2.267857,2.26786 -0.450763,0.22538 -1.061141,-0.22538 -1.511906,0 -0.318735,0.15937 -0.437213,0.59658 -0.755951,0.75595 -0.273379,0.13669 -3.253968,0 -3.779761,0 -2.771825,0 -5.543651,0 -8.315476,0 -0.50397,0 -1.007938,0 -1.511906,0 -0.251984,0 -0.755951,0.25199 -0.755951,0 0,-0.25198 1.007935,0 0.755951,0 -0.503968,0 -1.007935,0 -1.511906,0 -0.251984,0 -0.57777,0.17818 -0.755951,0 -0.178179,-0.17818 -0.251984,-0.75595 0,-0.75595 1.086673,0 1.389052,4.04431 0,-1.5119 -0.250391,-1.00158 0.259908,-2.74014 0,-3.77977 -0.08643,-0.34572 -0.596583,-0.43721 -0.755952,-0.75595 -0.112691,-0.22538 0,-0.50397 0,-0.75595 0,-1.37022 0.371319,-2.26786 -1.511906,-2.26786"
       id="path3771"
       inkscape:connector-curvature="0" />
    <path
       style="fill:none;stroke:#000000;stroke-width:0.26458332px;stroke-linecap:butt;stroke-linejoin:miter;stroke-opacity:1"
       d="m 101.29762,37.052758 c 0,2.771823 0,5.543653 0,8.315473 0,0.50397 0,1.00794 0,1.51191 0,0.25198 0.11269,0.53057 0,0.75595 -0.15937,0.31874 -0.59659,0.43721 -0.75595,0.75595 -0.1127,0.22538 0.0797,0.5169 0,0.75596 -0.17819,0.53453 -0.577778,0.97736 -0.755956,1.5119 -0.07968,0.23905 0.139774,0.54629 0,0.75595 -0.395346,0.59302 -1.11656,0.91889 -1.511906,1.51191 -0.279551,0.41932 0.159369,1.0338 0,1.5119 -0.178178,0.53454 -0.577773,0.97737 -0.755952,1.51191 -0.159369,0.4781 0.159369,1.03379 0,1.5119 -0.356359,1.06908 -1.155546,1.95473 -1.511906,3.02381 -0.173323,0.51997 0.223015,1.82183 0,2.26786 -0.159369,0.31873 -0.596582,0.43721 -0.755951,0.75595 -0.120452,0.2409 0,3.10415 0,3.77976 0,3.83082 0.225382,-0.90152 -0.755952,3.02381 -0.183345,0.73338 0,1.51191 0,2.26786 0,1.5119 0,3.02381 0,4.53571 0,0.50397 0.159369,1.0338 0,1.51191 -0.356359,1.06908 -1.238591,1.93055 -1.511906,3.02381 -0.122229,0.48892 0.159369,1.0338 0,1.5119 -0.112691,0.33808 -0.596582,0.43722 -0.755951,0.75596 -0.112692,0.22538 0,0.50396 0,0.75595 0,0.25198 0,0.50396 0,0.75595"
       id="path3773"
       inkscape:connector-curvature="0" />
    <path
       style="fill:none;stroke:#000000;stroke-width:0.26458332px;stroke-linecap:butt;stroke-linejoin:miter;stroke-opacity:1"
       d="m 101.29762,37.052756 c 1.5119,1.511905 3.02381,3.023815 4.53571,4.535715 0,0.25199 -0.13977,0.54629 0,0.75595 0.39535,0.59302 1.11656,0.91889 1.51191,1.51191 0.19739,0.2961 -0.15943,3.62034 0,3.77976 0.17818,0.17818 0.57777,-0.17818 0.75595,0 0.17818,0.17818 0,0.50397 0,0.75595 0,0.25199 0,0.50397 0,0.75596 0,1.25992 0,2.51984 0,3.77976 0,0.25198 0,0.50397 0,0.75595 0,0.25198 -0.11269,0.53057 0,0.75595 0.31874,0.63748 1.19317,0.87443 1.5119,1.51191 0.11269,0.22538 -0.0797,0.5169 0,0.75595 0.17818,0.53454 0.57778,0.97736 0.75596,1.5119 0.71118,2.13355 -1.25503,-1.49723 0,2.26786 0.11269,0.33807 0.59658,0.43721 0.75595,0.75595 0.11269,0.22539 -0.11269,0.53057 0,0.75595 0.40631,0.81263 0.96678,1.54103 1.5119,2.26786 0.21382,0.28509 0.64326,0.41788 0.75596,0.75596 0.34405,1.03217 -0.34406,3.50354 0,4.53571 0.50396,1.00794 1.00793,2.01587 1.5119,3.02381 0,0.50397 -0.15937,1.0338 0,1.5119 0.22538,0.67615 1.19317,0.87443 1.51191,1.51191 0.22538,0.45076 -0.27956,1.09258 0,1.5119 -1.8654,2.28864 2.05623,1.30029 2.26785,1.51191 0.0343,0.0343 0,3.42333 0,3.77976"
       id="path3775"
       inkscape:connector-curvature="0" />
    <path
       style="fill:none;stroke:#000000;stroke-width:0.26458332px;stroke-linecap:butt;stroke-linejoin:miter;stroke-opacity:1"
       d="m 113.39286,69.558711 c -2.01587,-2.01587 -3.91685,-4.1536 -6.04762,-6.04762 -0.0411,-0.0365 -2.07306,0 -2.26786,0 -3.02381,0 -6.04762,0 -9.07143,0"
       id="path3777"
       inkscape:connector-curvature="0" />
    <path
       style="fill:none;stroke:#000000;stroke-width:0.26458332px;stroke-linecap:butt;stroke-linejoin:miter;stroke-opacity:1"
       d="m 124.73214,34.028949 c 0,12.851192 0,25.702382 0,38.553572 0,0.82445 -0.16323,5.55793 0,6.04762 0.17818,0.53454 0.57777,0.97736 0.75595,1.5119 0.13638,0.40913 0,2.76628 0,3.02381 0,0.75596 0,1.51191 0,2.26786 0,0.25198 0.23027,0.85829 0,0.75595 -2.37073,-1.05366 -4.53571,-2.51984 -6.80357,-3.77976"
       id="path3779"
       inkscape:connector-curvature="0" />
    <path
       style="fill:none;stroke:#000000;stroke-width:0.26458332px;stroke-linecap:butt;stroke-linejoin:miter;stroke-opacity:1"
       d="m 124.73214,34.028947 c -0.50397,-0.251984 -1.76389,-0.251984 -1.5119,-0.755949 0.25198,-0.503968 0.95411,0.676267 1.5119,0.755949 1.24726,0.178181 2.51984,2e-6 3.77976,2e-6 2.01588,0 4.03175,0 6.04762,0 1.00794,0 2.0676,-0.318738 3.02381,0 0.23906,0.07968 -0.17818,0.577774 0,0.755952 0.17818,0.178181 0.57777,-0.178178 0.75595,0 0.17818,0.178181 -0.17818,0.577773 0,0.755952 0.17818,0.178181 0.50397,0 0.75596,0 0.25198,0 0.50397,0 0.75595,0"
       id="path3781"
       inkscape:connector-curvature="0" />
    <path
       style="fill:none;stroke:#000000;stroke-width:0.26458332px;stroke-linecap:butt;stroke-linejoin:miter;stroke-opacity:1"
       d="m 126.24405,52.171811 c 1.76388,0 3.52777,0 5.29166,0 0.25199,0 0.57777,-0.17819 0.75595,0 0.17819,0.17817 -0.17818,0.57777 0,0.75595 0.17819,0.17818 0.50397,0 0.75596,0 0.25198,0 0.50396,0 0.75595,0"
       id="path3783"
       inkscape:connector-curvature="0" />
    <path
       style="fill:#0000ff;stroke-width:0.26458332"
       id="path3792"
       d="m 60.372608,34.837611 c 1.99911,0.661146 4.105016,0.906889 6.19392,1.085067 1.766771,0.124161 3.539072,0.125177 5.309277,0.129104 1.86145,0.0031 3.722873,-0.0035 5.584307,-0.01058 0.550444,0.0933 1.123711,-0.09596 1.67441,-0.0051 0.606269,0.1 1.164733,0.393467 1.755701,0.56174 0.787974,0.224372 1.169821,0.290195 1.974183,0.459986 2.157031,0.164743 3.600537,1.216273 4.593757,3.085643 0.672356,1.58539 0.686601,3.30662 0.709033,4.99813 0.01323,1.76157 -0.01476,3.52299 -0.02792,5.28443 0.157562,1.65923 0.435438,3.3024 0.593087,4.96225 0.314089,2.05802 0.916212,4.0564 1.26669,6.11525 0.301429,2.12999 0.347774,4.28372 0.391173,6.43108 0.03292,1.77185 0.0249,3.54384 0.0043,5.31573 0.01913,1.72904 0.179178,3.47065 -0.873244,4.93301 -3.709062,2.92682 -1.315792,1.08875 -11.028466,6.46286 -0.519959,0.2877 -1.381511,0.36653 -1.92646,0.56852 -0.623615,0.23114 -1.19802,0.57821 -1.803202,0.85403 -1.680514,0.62847 -3.236568,1.53052 -4.93469,2.11185 -1.514182,0.80136 -3.16324,1.05133 -4.844143,1.19512 -1.754875,0.12589 -3.514958,0.11131 -5.273,0.10831 -1.765898,10e-4 -3.531764,-0.008 -5.297644,-0.0119 -1.808141,-0.11903 -2.717776,-1.24815 -3.217076,-2.8719 -0.32217,-1.63064 -0.35809,-3.31702 -0.134501,-4.96014 0,0 10.047933,-4.86288 10.047933,-4.86288 v 0 c -0.42908,1.43479 -0.212947,2.98586 -0.0641,4.46172 0.316265,1.30618 1.03886,1.70538 2.397797,1.6747 1.765134,0.001 3.530235,0.005 5.295369,0.009 1.73546,-0.01 3.476135,-0.0182 5.202687,-0.21417 1.636059,-0.24223 3.177347,-0.73816 4.683919,-1.42336 1.632391,-0.69307 3.227067,-1.47416 4.872706,-2.13778 0.924698,-0.39957 1.876409,-0.69347 2.808764,-1.06822 0.303715,-0.12208 1.174173,-0.57576 0.893617,-0.40714 -21.244054,12.76843 -10.68487,6.31325 -8.082989,4.72126 1.744842,-0.78005 1.31984,-2.46236 1.34411,-4.08386 -0.0141,-1.76689 -0.0044,-3.53355 0.0013,-5.30047 -0.01053,-2.10068 -0.03475,-4.20725 -0.30139,-6.29422 -0.313478,-2.09256 -0.906931,-4.10206 -1.346665,-6.16421 -0.13326,-1.69786 -0.389147,-3.37685 -0.622475,-5.06279 0.006,-1.75539 0.01929,-3.5106 0.03167,-5.26596 -0.01262,-1.51605 0.02379,-3.0761 -0.47942,-4.52677 -0.892225,-1.76532 -2.177233,-1.98637 -4.031025,-2.28951 -1.754841,-0.40918 -3.456805,-0.98817 -5.287391,-0.79834 -1.861539,-10e-4 -3.723068,0.003 -5.584589,0.003 -1.786353,-0.0108 -3.575101,-0.0326 -5.352717,-0.23117 -2.162297,-0.25448 -4.320532,-0.60104 -6.407721,-1.23684 0,0 9.291071,-6.303905 9.291071,-6.303905 z"
       inkscape:connector-curvature="0" />
    <path
       style="fill:#0000ff;stroke-width:0.26458332"
       id="path3794"
       d="m 89.693913,83.407151 c 1.643597,-2.06744 2.168906,-4.7244 2.929112,-7.19658 0.731613,-2.33705 1.152461,-4.74195 1.358064,-7.17688 0.12093,-2.05713 0.09012,-4.11881 0.114443,-6.17839 0.05208,-2.29752 -0.09389,-4.59948 0.0389,-6.89409 0.281318,-1.94207 1.049917,-3.76573 1.791893,-5.56839 0.608521,-1.63473 1.074442,-3.3211 1.562979,-4.99535 0.838909,-2.04145 1.605018,-4.1063 2.27398,-6.20985 0.722776,-2.049196 1.358516,-4.172122 2.375396,-6.100403 2.05476,-2.980769 9.07564,-8.774276 11.88728,-5.390242 0.4205,0.506105 0.53822,0.94847 0.77165,1.54642 0.48441,1.63031 0.53104,3.339764 0.56866,5.027224 5e-5,1.755251 -0.005,3.510501 -0.008,5.265741 -0.0749,1.57835 0.30812,3.12501 0.51422,4.68089 0.37151,1.63924 0.52664,3.32024 1.06188,4.91691 0.66404,1.90615 1.4868,3.74908 2.12227,5.66522 0.59034,2.0443 1.42497,3.99918 2.00328,6.04668 0.49502,2.05709 1.13583,4.07684 1.72522,6.10896 0.48538,1.8495 1.01935,3.68791 1.71221,5.47135 0.70874,1.7338 1.21294,3.54743 1.60613,5.37642 0.23129,1.49705 0.12863,0.74792 0.30821,2.24736 0,0 -9.85287,5.16109 -9.85287,5.16109 v 0 c -0.15332,-1.43904 -0.0613,-0.72479 -0.27511,-2.14285 -0.37275,-1.77096 -0.88115,-3.52084 -1.52576,-5.21184 -0.71615,-1.80955 -1.28473,-3.67869 -1.76092,-5.56445 -0.57908,-2.0379 -1.20914,-4.06392 -1.68208,-6.13006 -0.60037,-2.0252 -1.44312,-3.96717 -2.01928,-6.0013 -0.59534,-1.92417 -1.47121,-3.72681 -2.13326,-5.62583 -0.60261,-1.66098 -0.75826,-3.40576 -1.20022,-5.11233 -0.18715,-1.60598 -0.58515,-3.19408 -0.56496,-4.8158 0.0111,-1.74781 0.0331,-3.49577 0.0133,-5.24358 -0.0142,-1.56535 -0.0129,-3.152836 -0.39699,-4.680699 -0.094,-0.260575 -0.2074,-0.73325 -0.4562,-0.940194 -0.17945,-0.149254 -0.8993,0.09 -0.69954,-0.03072 8.48058,-5.125405 12.39422,-6.759445 8.52517,-5.114734 -1.35249,1.65164 -1.76226,3.919643 -2.59934,5.848141 -0.59623,2.106406 -1.28373,4.199426 -2.17564,6.200926 -0.62693,1.65145 -0.9576,3.40938 -1.55393,5.07353 -0.70801,1.7343 -1.47217,3.45067 -1.9433,5.2711 -0.28264,2.25663 -0.0568,4.54755 -0.11197,6.81661 0.0326,2.0832 0.027,4.16732 -0.0756,6.24883 -0.14469,2.52868 -0.574,5.0133 -1.32971,7.43672 -0.29255,0.99114 -0.63505,1.96737 -0.91512,2.96212 -0.44064,1.56504 -0.74873,3.15348 -1.66058,4.54166 0,0 -10.323671,4.41066 -10.323671,4.41066 z"
       inkscape:connector-curvature="0" />
    <path
       style="fill:#0000ff;stroke-width:0.26458332"
       id="path3796"
       d="m 107.97942,64.750541 c 2.16148,-0.43438 4.40169,-0.74167 6.49771,-1.43686 1.57121,-0.50612 3.17472,-0.88634 4.79378,-1.19956 0,0 -8.86414,6.72028 -8.86414,6.72028 v 0 c -1.59101,0.3504 -3.16489,0.76482 -4.72061,1.25028 -2.22695,0.54863 -4.49064,1.09031 -6.78058,1.25839 0,0 9.07384,-6.59253 9.07384,-6.59253 z"
       inkscape:connector-curvature="0" />
    <path
       style="fill:#0000ff;stroke-width:0.26458332"
       id="path3798"
       d="m 128.06662,81.866161 c 0.092,-2.68513 0.056,-5.37243 0.0317,-8.05841 -0.0778,-2.13434 -1.09615,-4.03997 -1.75582,-6.02713 -0.86997,-2.77016 -1.03002,-5.69057 -1.19484,-8.57039 -0.1066,-2.39328 -0.09,-4.79047 -0.0938,-7.18568 -0.0775,-1.92764 0.31331,-3.82552 0.52027,-5.7331 0.2098,-2.19356 0.24394,-4.39853 0.25925,-6.60044 0.0837,-2.524132 -0.13677,-5.065098 0.13973,-7.577237 0.2736,-1.117201 0.70605,-2.446936 1.78622,-3.064733 10.14729,-5.803672 6.44521,-5.197319 11.08509,-5.838941 2.91521,-0.102785 5.64358,1.499052 8.05737,2.969813 2.49672,1.71723 4.88964,3.568597 7.29556,5.410279 1.81489,1.344637 3.71907,2.590768 5.87556,3.29768 1.28931,0.772892 2.77845,0.835882 4.17963,1.230423 1.14461,0.351012 2.32985,0.494467 3.5181,0.590444 0,0 -9.12588,6.487702 -9.12588,6.487702 v 0 c -1.21865,-0.15269 -2.42157,-0.38099 -3.60425,-0.71743 -1.46422,-0.30047 -2.88378,-0.66913 -4.22447,-1.35732 -2.16734,-0.89946 -4.11718,-2.21358 -5.98251,-3.62781 -2.34793,-1.83164 -4.71015,-3.649547 -7.16621,-5.333123 -2.32177,-1.341374 -4.96766,-2.766642 -7.72793,-2.166755 -3.98153,1.338879 -0.34304,0.166021 8.26019,-4.980926 0.21254,-0.127156 -0.47211,0.157726 -0.69027,0.27497 -0.79634,0.427975 -1.25304,1.09854 -1.55482,1.935742 -0.51892,2.433857 -0.093,4.963213 -0.23081,7.436551 -0.0156,2.222027 0.0213,4.449221 -0.15801,6.665891 -0.17608,1.88953 -0.58421,3.75432 -0.60248,5.65223 -0.0151,2.38563 -0.0276,4.77157 0.0331,7.15674 0.0956,2.78806 0.23199,5.60938 1.05358,8.29541 0.71525,2.09348 1.86553,4.07247 1.94706,6.33357 -0.0239,2.67518 -0.0611,5.35177 0.0317,8.02609 0,0 -9.962,5.07589 -9.962,5.07589 z"
       inkscape:connector-curvature="0" />
    <path
       style="fill:#0000ff;stroke-width:0.26458332"
       id="path3800"
       d="m 139.81271,48.124771 c 2.44334,0.42142 4.93615,0.41028 7.3802,0.79752 2.22912,0.34199 4.3555,1.17624 6.48913,1.89333 1.3062,0.58957 0.66956,0.30446 1.90963,0.85592 0,0 -9.28687,6.16806 -9.28687,6.16806 v 0 c -1.18939,-0.53478 -0.58309,-0.27549 -1.81959,-0.77631 -2.09922,-0.6672 -4.16659,-1.50439 -6.37366,-1.73512 -2.4414,-0.29841 -4.90352,-0.49431 -7.35842,-0.62124 0,0 9.05958,-6.58216 9.05958,-6.58216 z"
       inkscape:connector-curvature="0" />
    <path
       style="fill:#0000ff;stroke-width:0.26458332"
       id="path3823"
       d="m 60.49252,76.620111 c 0.02373,0.47553 0.06685,0.9518 0.178782,1.41549 0.164637,0.4618 1.016214,-0.3485 -1.719731,0.94472 -0.02815,0.0133 0.0154,-0.0604 0.02061,-0.0911 0.0024,-0.0144 0.05197,-0.37415 0.05203,-0.37458 0.07251,-0.44179 0.166855,-0.88077 0.322228,-1.30116 0.145799,-0.34837 0.282623,-0.70002 0.362742,-1.06958 0.07947,-0.46376 0.08367,-0.93605 0.0866,-1.40529 -0.01109,-0.29154 -0.05878,-0.38637 -0.34231,-0.42761 -0.29274,-0.0213 -0.586502,-0.0124 -0.879708,-0.0107 -0.614225,0.28643 -1.537843,0.80039 1.341258,-0.77279 0.03332,-0.0182 -0.05781,0.0499 -0.0816,0.0795 -0.05724,0.0712 -0.07995,0.14492 -0.115105,0.2288 -0.143285,0.3134 -0.228446,0.63925 -0.271949,0.97981 -0.03329,0.32087 -0.03535,0.64375 -0.03619,0.96599 0.0013,0.33577 -0.02805,0.67289 0.04313,1.00305 0.100036,0.23669 0.241503,0.46391 0.48606,0.56281 -0.07053,0.1758 0.32929,-0.13638 0.25572,-0.0961 -0.546616,0.29956 -1.074176,0.63335 -1.623761,0.92744 -0.0313,0.0167 0.04417,-0.0567 0.05778,-0.0895 0.02127,-0.0513 0.03053,-0.10671 0.04579,-0.16006 0.06482,-0.43443 0.05839,-0.87551 0.05585,-1.3136 -0.0357,-0.81308 -0.243099,-0.20548 1.750365,-0.98555 0.03754,-0.0147 -0.01728,0.0787 -0.02532,0.11825 -0.05107,0.25114 0.0027,0.008 -0.05927,0.27946 -0.05989,0.28655 -0.184015,0.54568 -0.365043,0.77399 -0.668051,0.67484 -1.548159,1.13565 -2.419326,1.49509 -0.296188,0.15367 -0.61968,0.23905 -0.929029,0.3598 -0.346215,0.0821 -0.657095,0.23608 -0.973931,0.39132 -0.337166,0.14664 -0.699722,0.23987 -1.022064,0.41738 -0.640075,0.3324 -0.60194,0.31545 1.341758,-0.77568 0.04995,-0.028 -0.09648,0.0619 -0.142807,0.0956 -0.01643,0.012 -0.123097,0.12226 -0.159885,0.12202 0.0028,-0.007 0.0011,-0.0193 0.0084,-0.0224 0.04664,-0.0193 0.101039,0.005 0.151376,0.001 0.135107,-0.009 0.274093,-0.042 0.408326,-0.0608 0.326877,-0.0875 0.643507,-0.20683 0.965309,-0.31058 0.33098,-0.11963 0.654402,-0.25449 0.981506,-0.38397 0.271214,-0.17734 0.599861,-0.19988 0.892617,-0.31406 0.259014,-0.10546 0.535511,-0.10965 0.810405,-0.11666 0.361342,0.004 0.619393,0.18968 0.833845,0.46309 0.169707,0.25228 0.212897,0.54693 0.232096,0.84324 0.01281,0.30467 0.01045,0.6097 0.0095,0.91455 -0.02684,0.29813 0.136496,0.54037 0.264776,0.79393 0.209328,0.36694 0.493533,0.68093 0.752367,1.01243 0.180652,0.20694 0.320082,0.45957 0.532212,0.63855 0.08518,0.0719 0.183697,0.12624 0.275132,0.18996 0.04707,0.0235 0.09564,0.0442 0.141221,0.0705 0.233196,0.13438 0.0718,0.0737 0.32933,0.18231 0.189931,0.0801 0.387138,0.13038 0.577731,0.20974 0.365297,0.1476 0.743487,0.26404 1.130424,0.33801 0.433316,0.0466 0.860737,0.11573 1.283989,0.2194 0.330792,0.0865 0.656537,0.18167 0.995965,0.2293 0.04826,0.005 0.09741,0.004 0.144791,0.0143 0.07849,0.0171 0.329546,0.11083 0.393657,0.13164 0.243155,0.0789 0.479515,0.15468 0.716196,0.25239 0.404397,0.202 0.85245,0.23348 1.289179,0.31058 0.382551,0.11171 0.746512,0.2627 1.139407,0.33914 0.222586,0.0505 0.457264,0.0156 0.677495,0.0772 0.09776,0.0274 0.190677,0.0698 0.28692,0.10215 0.352417,0.10146 0.689123,0.24206 1.039823,0.35022 0.461584,0.17247 0.945239,0.28176 1.42962,0.36793 0.545121,0.0803 1.089795,0.15649 1.63938,0.19893 0.372147,0.0256 0.745326,0.0289 1.118198,0.0301 0.221956,-0.0164 0.449244,0.0193 0.670755,-0.003 0.08833,-0.009 0.173871,-0.0359 0.261128,-0.0522 0.03846,-0.0168 0.07662,-0.0343 0.115369,-0.0505 0.204216,-0.0851 0.03277,0.002 0.207105,-0.11321 0.03075,-0.0204 0.127225,-0.0747 0.09525,-0.0563 -1.606124,0.924 -2.114735,1.2509 -1.49338,0.8542 0.24846,-0.14153 0.478216,-0.31188 0.712251,-0.47521 0.05124,-0.0336 0.100875,-0.0697 0.153717,-0.10069 0.61681,-0.36161 1.241846,-0.70923 1.855031,-1.07695 0.4884,-0.2929 -1.973998,1.13685 -1.480624,0.85242 0.625795,-0.36078 1.250534,-0.72341 1.877896,-1.08146 0.162793,-0.0929 0.253336,-0.13037 0.422386,-0.2084 0.258022,-0.11551 0.167309,-0.0712 0.41702,-0.19761 0.06943,-0.0352 0.275228,-0.14524 0.207857,-0.10629 -2.648709,1.53129 -1.650045,0.96418 -1.072004,0.55786 0.409069,-0.28824 0.811784,-0.58359 1.231852,-0.85588 0.391202,-0.24194 0.75552,-0.5232 1.130946,-0.78813 0.315253,-0.18692 0.526833,-0.45505 0.71932,-0.75898 0.235193,-0.37246 0.297928,-0.81082 0.381648,-1.23481 0.05449,-0.36549 0.131553,-0.72702 0.190473,-1.09175 0.0031,-0.0495 -0.03657,-0.18944 -0.122652,-0.15238 -0.02935,0.0127 -0.04508,0.0454 -0.06953,0.066 -0.03358,0.0283 -0.142801,0.10149 -0.10432,0.0804 0.521399,-0.2862 1.03623,-0.58419 1.554348,-0.87629 -0.286906,0.21062 -0.529606,0.46989 -0.780693,0.71974 -0.200715,0.19946 -0.356528,0.44149 -0.492268,0.68859 -0.155911,0.29263 -0.33139,0.57508 -0.504758,0.85775 -0.164598,0.24423 -0.284631,0.5134 -0.443651,0.76095 -0.206769,0.30887 -0.412993,0.6181 -0.612934,0.93146 -0.175591,0.29818 -0.386114,0.57194 -0.592979,0.84844 -0.226742,0.28824 -0.427574,0.59506 -0.66607,0.87396 -0.191497,0.22264 -0.411567,0.41663 -0.647893,0.58998 -0.742889,0.56419 -1.573749,0.99201 -2.384412,1.45185 4.135874,-2.38868 -0.157228,0.0966 -0.237466,0.14218 -0.153395,0.0871 -0.110569,0.0257 -0.279805,0.0888 -0.103097,0.0384 -0.197178,0.0977 -0.297375,0.14317 -0.320951,0.11979 -0.659596,0.16549 -0.999226,0.18898 -0.264734,0.0164 -0.530061,0.007 -0.794996,0.0134 -0.276476,-0.19737 -0.03635,-0.36184 0.148807,-0.4731 0.835128,-0.54115 1.708126,-1.02022 2.575364,-1.50771 -0.102396,0.073 0.415616,-0.21953 0.313817,-0.16078 -0.512215,0.29562 -2.051362,1.17812 -1.538719,0.88324 0.620012,-0.35662 1.240722,-0.71204 1.860823,-1.06851 0.06129,-0.0352 0.244679,-0.14177 0.183343,-0.10661 -0.498356,0.28566 -0.996275,0.57208 -1.494412,0.85812 0.313082,-0.20174 0.6213,-0.41069 0.926928,-0.6235 0.251865,-0.19596 0.479367,-0.42064 0.726655,-0.62207 0.322646,-0.23686 0.650869,-0.46674 0.983064,-0.6901 0.800235,-0.58256 1.67263,-1.03383 2.53201,-1.53052 0.293476,-0.11236 0.564528,-0.27069 0.848982,-0.40228 0.26145,-0.085 0.490011,-0.23102 0.752213,-0.31183 0.736896,-0.28097 2.080275,-1.12044 -0.918909,0.59912 0.01664,-0.006 0.0336,-0.0239 0.04993,-0.0173 0.01199,0.005 0.05246,0.0764 0.02614,0.0957 -0.0048,0.003 -0.212913,0.0114 -0.259514,0.0219 -0.04321,0.015 -0.08732,0.0276 -0.129622,0.0449 -0.17209,0.0707 -0.339371,0.18074 -0.293399,0.15465 2.633334,-1.49418 1.855348,-1.1123 1.288603,-0.69395 -0.214953,0.1972 -0.443365,0.37949 -0.660035,0.57466 -0.256506,0.24269 -0.510199,0.48882 -0.784,0.7121 -0.277673,0.19216 -0.540332,0.40282 -0.792679,0.62688 -0.265379,0.23277 -0.529703,0.46587 -0.817655,0.67053 -6.158045,3.5313 1.076476,-0.6098 -0.467479,0.28142 -0.610716,0.35252 -1.223063,0.70221 -1.835084,1.05247 -0.520573,0.29792 1.03909,-0.59944 1.56074,-0.89547 0.04188,-0.0238 -0.08081,0.0524 -0.121219,0.0786 -0.670242,0.47136 -0.278944,0.20117 -1.921427,1.1279 -0.08466,0.0478 -0.16477,0.0428 -0.254397,0.073 -0.0724,0.0244 -0.139843,0.0618 -0.211474,0.0884 -0.246023,0.11717 -0.493972,0.22557 -0.739312,0.344 -0.723961,0.28787 -1.999914,1.0947 1.033939,-0.64993 1.684152,3.12159 -2.187845,1.28933 -1.847059,0.69875 0.03665,-0.0635 0.390578,-0.26625 0.449342,-0.30538 0.899628,-0.60546 1.859317,-1.11734 2.798932,-1.6554 0.214423,-0.14253 0.464605,-0.21624 0.692893,-0.33004 0.134562,-0.0671 0.260559,-0.15015 0.392142,-0.2229 -0.487291,0.2806 -0.973471,0.56314 -1.461873,0.8418 -0.07341,0.0419 0.14487,-0.0871 0.216826,-0.13143 0.06491,-0.04 0.389834,-0.24524 0.453122,-0.28152 0.645121,-0.36979 1.291003,-0.73828 1.939703,-1.10175 0.08971,-0.0503 0.183505,-0.0929 0.275257,-0.13931 0.931865,-0.53749 -0.607751,0.35144 -1.146342,0.64738 -0.07424,0.0408 0.141301,-0.0935 0.211376,-0.14109 0.17349,-0.11786 0.339764,-0.23982 0.500904,-0.37392 0.02289,-0.0533 0.199003,-0.14816 0.06751,-0.15201 -0.06421,-0.002 -0.277001,-0.0216 -0.323369,-0.0256 -0.540567,-0.0629 -1.060246,0.023 -1.571037,0.19616 -0.186735,0.0827 -0.288264,0.12334 -0.468054,0.22006 -0.07289,0.0392 -0.286768,0.16545 -0.214746,0.12466 2.643116,-1.49689 1.62869,-0.9373 1.045842,-0.55857 -0.36232,0.25677 -0.711218,0.53095 -1.075859,0.78494 -0.365017,0.24021 -0.678333,0.54396 -1.00602,0.83012 -0.290372,0.24592 -0.558385,0.51579 -0.86809,0.73771 -0.01561,-0.006 -0.279746,0.23009 -0.28656,0.22888 -0.03802,-0.007 -0.02307,-0.0878 0.0035,-0.11581 0.0249,-0.0263 0.0629,-0.0358 0.09435,-0.0537 0.304049,-0.1528 0.627261,-0.26057 0.932651,-0.41086 0.374444,-0.12777 0.720876,-0.3203 1.080921,-0.48056 0.453615,-0.19211 0.878896,-0.44217 1.314246,-0.67066 0.836039,-0.47904 -0.872267,0.50507 -1.311169,0.75274 -0.05713,0.0322 0.111234,-0.0697 0.164926,-0.10741 0.09294,-0.0652 0.177707,-0.13078 0.246306,-0.22109 -0.07023,0.0998 -0.249196,0.0949 -0.357482,0.13434 -0.112363,0.0409 -0.221059,0.0913 -0.332388,0.13488 -0.06031,0.0257 -0.122915,0.0466 -0.180927,0.0771 -0.07099,0.0374 -0.27495,0.16533 -0.205018,0.12602 1.526651,-0.85801 1.920402,-1.12462 1.200727,-0.66847 -0.08197,0.0519 -0.164237,0.10345 -0.24561,0.15633 -0.07747,0.0504 -0.153932,0.10225 -0.230899,0.15337 -0.851765,0.54453 -0.235784,0.15602 -2.149515,1.25374 -0.25817,0.14808 -0.516541,0.26994 -0.800121,0.35965 -0.327909,0.11707 -0.661083,0.20737 -0.992685,0.31179 -0.361246,0.122 -0.720963,0.22118 -1.100989,0.25837 -0.486537,0.14578 -0.963351,0.3281 -1.434235,0.51873 -0.480812,0.14244 -0.89549,0.43017 -1.340072,0.65181 -0.288246,0.14008 -0.57286,0.30063 -0.876091,0.40625 -0.131358,0.0702 -0.254408,0.16099 -0.392976,0.21731 -0.03759,0.0153 -0.150135,0.0602 -0.115112,0.0397 0.535636,-0.31352 1.079244,-0.61321 1.618864,-0.91981 -0.01749,0.008 -0.0334,0.0217 -0.05247,0.0233 -0.02371,0.002 -0.04911,-0.0399 -0.0383,-0.059 0.01595,-0.0282 0.216276,7.9e-4 0.226425,0.001 0.350084,0.0148 0.687007,-0.1295 1.019943,-0.22326 0.373258,-0.066 0.730043,-0.18677 1.090829,-0.29958 0.330843,-0.0775 0.638117,-0.22142 0.948502,-0.35488 0.301265,-0.15162 0.600342,-0.30706 0.915115,-0.42944 0.333597,-0.13401 0.648567,-0.3129 0.990928,-0.42327 0.329226,-0.11788 0.644326,-0.26893 0.988718,-0.33709 0.08754,-0.0507 0.194512,-0.0509 0.284502,-0.0942 0.02527,-0.0122 0.08737,-0.0701 0.06399,-0.0546 -0.559819,0.37061 -1.1064,0.76144 -1.673802,1.12035 -0.01762,0.0111 -0.257638,-0.006 -0.267726,-0.007 -0.474094,-0.031 -0.934294,0.092 -1.390142,0.20302 -0.474673,0.1591 -0.939475,0.34079 -1.403334,0.52861 -0.425175,0.15201 -0.836777,0.34079 -1.242346,0.53867 -0.303149,0.14348 -0.614757,0.26269 -0.917908,0.40654 -0.371364,0.18632 -0.773362,0.30825 -1.138643,0.50592 -0.258921,0.11739 -0.506613,0.25085 -0.770181,0.35877 -0.22647,0.17691 -0.493916,0.21539 -0.770535,0.24558 -0.04711,0.0117 -0.09423,0.0234 -0.141338,0.035 0,0 1.573956,-1.19404 1.573956,-1.19404 v 0 c 0.04962,-0.009 0.09923,-0.0172 0.148839,-0.0258 0.267655,-0.0505 0.50206,-0.15506 0.73897,-0.28781 0.253868,-0.11912 0.506373,-0.24059 0.759643,-0.361 0.378378,-0.16662 0.762389,-0.32043 1.135737,-0.49852 0.306568,-0.13986 0.619255,-0.26572 0.923391,-0.41118 0.407866,-0.18166 0.812435,-0.37048 1.233963,-0.51944 0.465807,-0.19013 0.937451,-0.36976 1.422123,-0.50595 0.472373,-0.11159 0.953569,-0.20836 1.441741,-0.16206 0.219765,0.0259 0.380103,0.0392 0.339103,0.0759 -0.990656,0.88669 -1.072994,1.08654 -1.916996,1.30063 -0.330565,0.0984 -0.64692,0.23755 -0.972222,0.35174 -0.331997,0.13736 -0.655125,0.2957 -0.987902,0.43163 -0.307662,0.13686 -0.605782,0.29347 -0.913077,0.43119 -0.312219,0.13562 -0.632399,0.2492 -0.96094,0.33906 -0.358632,0.11431 -0.723016,0.20121 -1.088371,0.29076 -0.352028,0.10174 -0.706795,0.22385 -1.078783,0.17393 -0.195472,-0.0283 -0.506413,-0.13923 -0.37215,-0.3958 0.74036,-0.4247 1.504106,-0.91605 2.296544,-1.27922 0.286382,-0.13063 0.574108,-0.25894 0.850598,-0.40991 0.437065,-0.23255 0.868074,-0.47949 1.343038,-0.62985 0.480896,-0.1875 0.964832,-0.3882 1.472724,-0.48755 0.371663,-0.0626 0.728075,-0.17577 1.087599,-0.28729 0.332732,-0.0943 0.657796,-0.21181 0.986509,-0.31905 0.188378,-0.0737 0.366753,-0.15676 0.545034,-0.25278 0.07394,-0.0398 0.29292,-0.16444 0.220514,-0.12189 -1.912834,1.12428 -1.831252,1.0768 -1.184608,0.68355 0.96316,-0.65885 1.958316,-1.30323 3.027275,-1.76987 0.21743,-0.0794 0.586714,-0.2489 0.806273,-0.0814 0.04579,0.0349 0.07312,0.089 0.109678,0.13352 0.0052,0.0467 0.02524,0.0941 0.01558,0.14004 -0.03312,0.15748 -0.246629,0.29854 -0.370983,0.37222 -1.474748,0.87392 -1.272352,0.76134 -2.047116,1.18345 -0.434308,0.23366 -0.869847,0.46571 -1.322099,0.66339 -0.358619,0.17322 -0.721545,0.33622 -1.090022,0.48742 -0.317053,0.13732 -0.634992,0.27634 -0.961928,0.3878 -0.126208,0.006 -0.160496,0.0366 -0.252888,-0.068 -0.185346,-0.2097 0.02146,-0.34929 0.183269,-0.47546 0.104267,-0.0691 0.21487,-0.1294 0.312885,-0.20709 0.198332,-0.15721 0.3609,-0.36047 0.56514,-0.51166 0.334761,-0.28526 0.64502,-0.59702 1.003832,-0.85303 0.370482,-0.24803 0.727262,-0.51337 1.075848,-0.79103 0.970312,-0.61403 1.922709,-1.28877 3.003601,-1.68897 0.533495,-0.14754 1.078603,-0.20613 1.63115,-0.14053 0.35061,0.0482 0.723265,0.14311 0.474105,0.5717 -0.215792,0.20944 -0.460931,0.3955 -0.719551,0.55011 -1.687729,1.00896 -1.303369,0.79513 -2.18545,1.27667 -0.7386,0.37898 -0.450771,0.23781 1.122894,-0.67881 0.07749,-0.0451 -0.153691,0.0925 -0.22996,0.13964 -0.07398,0.0458 -0.14738,0.0925 -0.220781,0.13916 -0.90945,0.57853 0.579742,-0.32021 -2.104731,1.22742 -0.359392,0.1952 -0.736275,0.3543 -1.092095,0.5564 3.033888,-1.76031 1.231464,-0.74261 0.560608,-0.29188 -0.02056,0.0133 -0.401924,0.2866 -0.42276,0.28762 -0.0363,0.002 -0.06825,-0.0298 -0.09371,-0.0558 -0.590511,-0.60153 1.115798,-0.85439 -1.763041,0.80843 0.795277,-0.46181 1.527,-0.95387 2.363293,-1.30433 0.246711,-0.121 0.502713,-0.22329 0.75438,-0.33325 0.109865,-0.0427 0.22506,-0.0734 0.332253,-0.12268 0.0384,-0.0176 0.148749,-0.0803 0.112302,-0.0589 -1.743318,1.02366 -2.073949,1.2387 -1.455597,0.84108 0.662485,-0.51991 0.149273,-0.12595 1.934573,-1.14498 0.515037,-0.29397 -1.02507,0.59664 -1.538296,0.89376 -0.05176,0.03 0.102243,-0.0621 0.153895,-0.0923 0.613421,-0.35814 1.226275,-0.71728 1.841317,-1.07263 0.509009,-0.29409 -1.015473,0.59256 -1.523208,0.88884 0.300998,-0.18267 0.55813,-0.41641 0.826965,-0.64123 0.247362,-0.2301 0.499304,-0.45701 0.782117,-0.6435 0.291539,-0.19707 0.538771,-0.44937 0.792945,-0.69072 0.210159,-0.20814 0.450374,-0.37583 0.651918,-0.59309 0.761246,-0.60765 1.60234,-1.21862 2.56192,-1.41391 0.198631,0.009 0.567685,0.0821 0.438185,0.36615 -0.824148,0.47331 -1.595202,1.01285 -2.488581,1.32879 -0.248214,0.10501 -0.49045,0.22479 -0.739569,0.32822 -0.275759,0.14151 -0.561972,0.26058 -0.834546,0.40791 2.939122,-1.70062 1.4537,-0.8902 0.830744,-0.42653 -0.330433,0.22297 -0.659905,0.44699 -0.984366,0.67866 -0.261152,0.18397 -0.484709,0.40974 -0.722961,0.62164 -0.293629,0.23695 -0.625753,0.42249 -0.931095,0.64399 -0.620445,0.3619 -1.240417,0.72461 -1.861331,1.0857 -0.06192,0.036 -0.249073,0.14162 -0.187158,0.1056 0.502145,-0.29211 2.013127,-1.16054 1.507853,-0.87388 -0.614699,0.34873 -1.222836,0.70892 -1.836129,1.06012 -0.101143,0.0579 -0.209889,0.10185 -0.309692,0.16231 -0.661149,0.36332 -0.363937,0.20167 1.359331,-0.79477 0.05251,-0.0304 -0.104222,0.0621 -0.155718,0.0941 -0.135348,0.0842 -0.274024,0.16332 -0.402447,0.25796 -0.105939,0.0669 -0.359675,0.26407 -0.385218,0.0193 0.258001,0.008 0.516837,-10e-4 0.774145,-0.0205 0.328702,-0.0358 0.654706,-0.0981 0.956513,-0.2392 0.148188,-0.0659 0.303623,-0.11609 0.449946,-0.18569 0.04095,-0.0195 0.158829,-0.0876 0.119657,-0.0647 -0.08022,0.0468 -4.505645,2.61477 0.239033,-0.14316 0.517173,-0.29601 1.909167,-1.09319 -1.466879,0.8578 -0.03851,0.0222 0.07551,-0.0472 0.111207,-0.0737 0.120869,-0.0899 0.241768,-0.17617 0.363908,-0.26485 0.236654,-0.1667 0.477208,-0.33431 0.666131,-0.55668 0.265099,-0.25399 0.450934,-0.56957 0.678521,-0.85529 0.206475,-0.27356 0.421034,-0.5426 0.596,-0.83801 0.212125,-0.30242 0.39528,-0.6233 0.608762,-0.92531 0.0529,-0.0829 0.117139,-0.15839 0.166907,-0.24318 0.0993,-0.16917 0.158022,-0.36418 0.278651,-0.522 0.189619,-0.26476 0.333169,-0.55896 0.510278,-0.83228 0.118605,-0.27032 0.287845,-0.52008 0.468791,-0.75194 0.25844,-0.24718 0.493205,-0.51725 0.774341,-0.74056 0.607909,-0.36224 1.208944,-0.73626 1.823725,-1.0867 0.264906,-0.151 0.484121,0.14219 0.519462,0.36929 -0.05681,0.36936 -0.142648,0.73314 -0.196229,1.10305 -0.08684,0.43891 -0.142655,0.89471 -0.34826,1.29761 -0.193331,0.31606 -0.362575,0.63462 -0.689668,0.83577 -0.388427,0.25218 -0.744072,0.55111 -1.137349,0.79643 -0.424151,0.26588 -0.830786,0.55312 -1.234194,0.8492 -0.135358,0.0915 -0.257146,0.20316 -0.39728,0.28721 -0.827801,0.49653 -1.629838,1.00516 -2.507046,1.39591 -0.139422,0.0701 -0.549177,0.29665 -0.414467,0.21783 0.490421,-0.28695 1.965727,-1.14087 1.474737,-0.85489 -6.271154,3.65258 1.013167,-0.61835 -0.516596,0.31403 -0.245576,0.14412 -0.45915,0.3328 -0.703339,0.47984 -0.780145,0.42181 -1.480833,1.05874 -2.354027,1.26534 -0.312798,0.0438 -0.629034,0.0189 -0.944015,0.0228 -0.373766,-0.003 -0.747749,-0.009 -1.119793,-0.0492 -0.550895,-0.0566 -1.098794,-0.13581 -1.646531,-0.21703 -0.490104,-0.0975 -0.977808,-0.21186 -1.449023,-0.38035 -0.35451,-0.10602 -0.694031,-0.25271 -1.052393,-0.34653 -0.3106,-0.0984 -0.629211,-0.11123 -0.949174,-0.16613 -0.382371,-0.0934 -0.74199,-0.25241 -1.126279,-0.33624 -0.448736,-0.071 -0.897204,-0.14388 -1.309277,-0.348 -0.40173,-0.15628 -0.816793,-0.29486 -1.245322,-0.35261 -0.337458,-0.0633 -0.664904,-0.16386 -0.997921,-0.24628 -0.421151,-0.10229 -0.850157,-0.1456 -1.277144,-0.21566 -0.393454,-0.0871 -0.777817,-0.20819 -1.149199,-0.36553 -0.374888,-0.13748 -0.751102,-0.26795 -1.082305,-0.49841 -0.352007,-0.25812 -0.57459,-0.52742 -0.825645,-0.88403 -0.265139,-0.34291 -0.567344,-0.65798 -0.78241,-1.03723 -0.143791,-0.27551 -0.331986,-0.55038 -0.314116,-0.87499 0.0024,-0.30119 0.0074,-0.60254 -0.0024,-0.90366 -0.01407,-0.25492 -0.02963,-0.51619 -0.174635,-0.73591 -0.190572,-0.23099 -0.418545,-0.33549 -0.723339,-0.31233 -0.270635,0.0214 -0.533853,0.0647 -0.788276,0.16368 -0.303382,0.0771 -0.593741,0.18378 -0.876035,0.32016 -0.325052,0.1355 -0.65626,0.25353 -0.987775,0.37223 -0.326268,0.11058 -0.652298,0.23291 -0.994203,0.28533 -0.270034,0.032 -0.579562,0.0842 -0.751655,-0.17565 -0.01003,-0.0374 -0.03077,-0.0734 -0.03013,-0.11203 0.0021,-0.13055 0.17131,-0.26449 0.266927,-0.32133 1.612212,-0.95825 1.243743,-0.77188 2.027894,-1.15869 0.340148,-0.14298 0.689904,-0.26344 1.024199,-0.42015 0.318673,-0.15511 0.650733,-0.26559 0.986759,-0.37661 0.312385,-0.11009 0.624221,-0.22346 0.92057,-0.37261 0.682286,-0.35102 0.143703,-0.0771 -1.399437,0.82289 -0.04108,0.024 0.08459,-0.0438 0.124711,-0.0693 0.115562,-0.0736 0.228703,-0.15766 0.325729,-0.2543 0.196188,-0.19175 0.350649,-0.41513 0.406664,-0.68898 0.02469,-0.0843 0.06138,-0.37062 0.08039,-0.38204 2.046375,-1.22882 1.813946,-1.62272 1.787625,-0.77438 -0.0031,0.44763 -0.0013,0.8962 -0.03617,1.34272 -0.0059,0.0648 -0.01961,0.30549 -0.05189,0.32776 -0.628203,0.43311 -1.309291,1.3494 -2.108044,1.03806 -0.26991,-0.1644 -0.449715,-0.42007 -0.567973,-0.71188 -0.08701,-0.34279 -0.06522,-0.69078 -0.06854,-1.04228 0.0016,-0.32994 0.0056,-0.66024 0.03439,-0.98915 0.03504,-0.35152 0.0868,-0.69714 0.244221,-1.01839 0.02715,-0.086 0.06955,-0.34562 0.153101,-0.3996 0.602152,-0.38903 1.29444,-1.05747 2.088137,-1.13159 0.306057,-0.003 0.616733,-0.0134 0.918075,0.0483 0.307369,0.11171 0.45906,0.32752 0.460476,0.66127 -0.0093,0.47949 -0.02098,0.95957 -0.07017,1.43695 -0.06821,0.38307 -0.186298,0.74892 -0.346964,1.10379 -0.177953,0.39869 -0.268753,0.82574 -0.343333,1.25467 -7.94e-4,0.008 -0.03883,0.33013 -0.04007,0.35748 -0.0019,0.0392 0.0379,0.0966 0.0048,0.1176 -0.672249,0.42546 -1.631802,1.65997 -1.822466,0.84786 -0.07812,-0.4748 -0.134361,-0.95254 -0.187439,-1.43057 0,0 1.750862,-0.91665 1.750862,-0.91665 z"
       inkscape:connector-curvature="0" />
    <path
       style="fill:#0000ff;stroke-width:0.26458332"
       id="path3825"
       d="m 92.152146,82.040051 c 0.218276,-0.0832 0.460404,-0.0829 0.682416,-0.1459 0.113131,-0.0321 0.217405,-0.0898 0.326311,-0.13415 0.213227,-0.10242 0.454871,-0.10511 0.676592,-0.17831 0.106442,-0.0351 0.207299,-0.0854 0.311505,-0.12668 0.176413,-0.0931 0.38286,-0.0825 0.568774,-0.13375 0.100624,-0.0277 0.193678,-0.078 0.291569,-0.11416 0.57273,-0.37531 1.520893,-0.87397 -1.238965,0.69691 -0.373562,0.21262 0.325652,-0.21042 0.387213,-0.25365 0.231386,-0.15689 0.463788,-0.31157 0.686382,-0.48085 0.02341,-0.0167 0.652518,-0.5445 0.301151,-0.31036 -0.25478,0.0348 -0.478507,0.14562 -0.702926,0.26444 -0.103553,0.0548 -0.409996,0.22706 -0.308198,0.16904 1.526818,-0.87016 1.719186,-1.00244 1.000131,-0.5401 -0.574083,0.38065 -1.164752,0.73519 -1.740048,1.11395 -0.389218,0.23673 -0.752364,0.50686 -1.103697,0.79555 -0.296997,0.24852 -0.587816,0.50413 -0.884192,0.75338 -0.255201,0.22576 -0.515379,0.44666 -0.764355,0.67931 -7.94e-4,-0.003 -0.138946,0.15578 -0.139639,0.15123 -0.01,-0.0657 0.219856,-0.0174 0.223467,-0.0171 0.32883,0.0141 0.660371,0.0356 0.987385,-0.008 0.05775,-0.0161 0.11743,-0.0263 0.173244,-0.0481 0.138298,-0.0541 0.602372,-0.33626 0.359487,-0.20108 -2.311805,1.28668 -1.739289,1.03441 -1.061416,0.51619 0.358302,-0.2539 0.684035,-0.54804 1.013018,-0.83771 0.212665,-0.19855 0.387528,-0.4216 0.517242,-0.68118 0.02641,-0.0812 0.2529,-0.44998 0.10014,-0.50394 -0.03691,-0.013 -0.07771,-0.01 -0.11656,-0.0143 -0.554717,0.22733 -1.853319,0.952 1.163058,-0.6819 0.06814,-0.0369 -0.127497,0.0883 -0.188703,0.13578 -0.163695,0.12711 -0.196334,0.16706 -0.345287,0.31204 -0.340558,0.33178 -0.575651,0.74611 -0.821729,1.148 -0.266399,0.43949 -0.571307,0.85307 -0.844175,1.28844 -0.02719,0.0663 -0.401407,0.55701 -0.166978,0.5974 0.03977,0.007 0.08071,-10e-4 0.12107,-0.002 0.117277,-0.0176 0.228963,-0.026 0.338567,-0.0786 0.07558,-0.0363 0.287144,-0.17304 0.213574,-0.13284 -0.476478,0.26037 -0.93698,0.55059 -1.422593,0.7935 -0.09451,0.0473 0.164735,-0.1326 0.243096,-0.20351 0.07701,-0.0697 0.148445,-0.14528 0.222668,-0.21793 0.380167,-0.37936 0.690335,-0.8198 0.991214,-1.26254 0.1285,-0.23066 0.318043,-0.43252 0.428157,-0.67379 0.01032,-0.0226 0.03689,-0.0617 0.01479,-0.073 -0.02238,-0.0115 -0.03589,0.0353 -0.05383,0.053 -0.04575,0.0168 -0.09175,0.0329 -0.137247,0.0503 -0.248126,0.095 -0.256082,0.0967 -0.517607,0.23556 -0.117652,0.0625 -0.464759,0.26053 -0.349226,0.19423 1.472147,-0.84477 1.607589,-0.9444 0.828519,-0.43784 -0.580676,0.40346 -1.112827,0.86942 -1.64383,1.33469 -0.128043,0.0121 -0.564346,0.74553 -0.295696,0.35779 0.751554,-0.45067 -0.508452,0.30708 -1.257594,0.70297 -0.106426,0.0563 0.198523,-0.13626 0.295532,-0.20753 0.30476,-0.22389 0.578816,-0.46816 0.850006,-0.7309 0.409384,-0.43441 0.790728,-0.89495 1.176546,-1.35039 0.02474,-0.0346 0.04949,-0.0693 0.07423,-0.10392 0.0047,0.008 0.0057,0.0267 0.01402,0.0232 0.585973,-0.24718 1.158539,-0.52578 1.747319,-0.76619 0.05474,-0.0224 -0.09472,0.071 -0.139435,0.10963 -0.101918,0.0882 -0.303551,0.28603 -0.393668,0.37315 -0.463336,0.46798 -0.885116,0.9811 -1.197428,1.56245 -0.04826,0.20555 -0.153712,0.31289 0.09756,0.20731 0.228555,-0.096 0.09036,-0.0201 0.330478,-0.18493 -2.617864,1.55514 -1.48119,0.94113 -0.996299,0.39079 0.220102,-0.24981 0.409234,-0.52457 0.59813,-0.7979 0.431112,-0.60143 0.907746,-1.16826 1.424541,-1.69744 0.37729,-0.36706 0.782124,-0.70389 1.20329,-1.01902 0,0 1.810946,-0.71904 1.810946,-0.71904 v 0 c -0.425264,0.31246 -0.843023,0.63405 -1.226084,0.99841 -0.529603,0.50696 -0.999117,1.07425 -1.436928,1.66173 -0.922187,1.38806 -1.102747,1.42622 -2.904678,2.4115 -0.07314,0.0304 -0.143108,0.07 -0.219435,0.0912 -0.404958,0.11249 -0.579107,-0.18167 -0.463039,-0.5404 0.304347,-0.59852 0.724683,-1.12865 1.179036,-1.62069 0.03814,-0.0383 0.443889,-0.47404 0.484973,-0.49437 0.619863,-0.30673 1.245891,-0.60265 1.885,-0.86695 0.02569,-0.0106 0.02008,0.056 0.0118,0.0826 -0.01545,0.0494 -0.05294,0.089 -0.0794,0.13354 -0.39238,0.46472 -0.796552,0.92038 -1.198301,1.3769 -0.903293,0.93567 -2.040398,1.70002 -3.248541,2.17036 -0.06025,-0.0161 -0.128423,-0.0143 -0.180753,-0.0482 -0.332496,-0.21544 0.08238,-0.60891 0.240615,-0.76869 0.544891,-0.47659 1.097688,-0.94483 1.679101,-1.37659 1.01981,-0.68907 0.450628,-0.31757 2.449053,-1.46467 0.345207,-0.19815 0.739663,-0.43557 1.151154,-0.37409 0.05639,0.048 0.130937,0.0807 0.169177,0.1441 0.129908,0.21552 -0.312121,0.67615 -0.409315,0.86565 -0.299358,0.45584 -0.619268,0.90448 -0.991926,1.30337 -0.787673,0.82243 -0.900128,0.75371 -2.363409,1.593 -0.205931,0.11811 -0.420823,0.14489 -0.65096,0.11381 -0.05977,-0.0245 -0.125378,-0.038 -0.179308,-0.0736 -0.337484,-0.22262 -0.08349,-0.60809 0.0638,-0.85737 0.270687,-0.43304 0.562578,-0.85061 0.833705,-1.28316 0.255894,-0.40558 0.480364,-0.83564 0.810159,-1.18769 0.672754,-0.74742 1.422818,-1.0459 2.390934,-1.57744 0.06531,-0.0359 0.140962,-0.0535 0.215114,-0.0608 0.07018,-0.007 0.140489,0.0125 0.21073,0.0188 0.05976,0.0332 0.127699,0.0548 0.17929,0.0997 0.222726,0.19377 0.08586,0.48048 -5.29e-4,0.70289 -0.144204,0.29886 -0.254342,0.50892 -0.493345,0.75055 -0.321683,0.30851 -0.668703,0.59632 -1.027441,0.86069 -0.730797,0.58228 -1.361588,0.90031 -2.276721,1.43925 -0.11761,0.0693 -0.266477,0.12791 -0.399187,0.15997 -0.06164,0.0149 -0.125309,0.0196 -0.187963,0.0293 -0.340143,0.0177 -0.683043,0.0134 -1.021699,-0.0252 -0.302355,-0.0604 -0.539485,-0.21721 -0.29228,-0.52028 0.242806,-0.2444 0.512625,-0.45767 0.763958,-0.69356 0.29469,-0.25122 0.594027,-0.49596 0.881867,-0.75479 0.357566,-0.29823 0.717285,-0.59183 1.123048,-0.82447 0.572399,-0.3909 1.173305,-0.73708 1.750025,-1.12138 0.916083,-0.59494 0.500655,-0.33205 2.306781,-1.3732 0.339777,-0.19586 0.709096,-0.36492 1.106775,-0.37637 0.06409,0.0244 0.138012,0.0312 0.192271,0.0731 0.304109,0.23498 -0.100267,0.51578 -0.266904,0.65834 -0.215374,0.18029 -0.441399,0.34108 -0.676479,0.49342 -0.821021,0.53743 -1.64856,1.08389 -2.544162,1.49136 -0.282969,0.0952 -0.581572,0.13334 -0.857631,0.25156 -0.324461,0.11746 -0.666329,0.17185 -0.986102,0.3036 -0.335661,0.11847 -0.690449,0.16006 -1.025266,0.2826 0,0 1.567387,-1.2177 1.567387,-1.2177 z"
       inkscape:connector-curvature="0" />
    <path
       style="fill:#0000ff;stroke-width:0.26458332"
       id="path3827"
       d="m 103.81268,62.854761 c 0.48535,0.0118 0.97093,0.01 1.45638,0.008 0.53741,-2.6e-4 1.07481,10e-4 1.61222,0.004 0.61978,-0.003 1.23914,-0.0113 1.85804,0.0247 1.10869,0.14917 2.17904,0.42777 3.28717,0.59786 0.49475,0.0786 0.99512,0.10196 1.49344,0.14372 0.0987,0.008 0.55705,0.0477 0.67543,0.0925 0.0697,0.0264 0.1221,0.0855 0.18315,0.12824 0.028,0.0599 0.0734,0.11442 0.084,0.17967 0.0821,0.50531 -0.87691,1.23037 -1.19974,1.514 -0.69682,0.57887 -1.41071,1.13802 -2.17171,1.63017 -1.10984,0.69587 -2.24179,1.3727 -3.49186,1.77403 -0.47008,0.14958 -0.9583,0.22161 -1.44101,0.3159 -0.4514,0.0695 -0.9082,0.0802 -1.36392,0.088 -0.48329,0.006 -0.96661,0.005 -1.44993,0.005 -0.46342,0.0278 -0.69857,-0.087 -0.83643,-0.53943 -0.0494,-0.49702 0.29837,-0.8268 0.64711,-1.12246 0.83793,-0.5936 1.76877,-1.07862 2.66013,-1.56784 0.45967,-0.2523 0.97534,-0.43107 1.45776,-0.63427 0.89162,-0.40291 1.781,-0.80961 2.6657,-1.22736 0.45383,-0.21042 0.93495,-0.35034 1.42807,-0.42827 0.84911,-0.0893 1.38092,-0.61172 -1.30779,1.11118 -0.0485,0.0311 -0.1152,-0.003 -0.1728,-0.004 -0.0935,-0.002 -0.18696,-0.004 -0.28043,-0.006 -1.05124,0.005 -2.1009,-0.0437 -3.15129,-0.0787 -1.00533,-0.0581 -2.00342,-0.0625 -2.99733,0.10826 -0.78538,0.13105 -1.54999,0.35635 -2.33167,0.50479 -0.25739,0.0532 -0.53311,0.0693 -0.78153,0.16318 -0.0347,0.0131 -0.12545,0.0789 -0.0948,0.0581 1.6953,-1.14814 0.99773,-1.08767 1.80883,-1.12928 0.89806,0.0546 1.79861,0.0505 2.69797,0.0485 0.67921,-0.007 1.3584,-0.0123 2.03765,-0.0136 0.7191,-0.005 1.43663,0.003 2.15445,0.0463 0.0932,0.14778 0.33845,-0.0603 0.45678,0.0362 0.55419,0.45233 -1.13627,0.89361 -1.7903,1.18342 -0.098,0.0434 -0.21441,-0.003 -0.32162,-0.003 -0.13707,-5.2e-4 -0.27413,2.7e-4 -0.4112,5.3e-4 -0.88178,-10e-4 -1.76351,0.007 -2.64526,0.0112 -0.69494,0.004 -1.38989,-5.3e-4 -2.08483,4e-5 -0.31006,0.001 -0.619,-0.008 -0.92778,0.0251 -0.0698,0.008 -0.14356,0.003 -0.20846,0.0297 -0.0291,0.012 -0.0799,0.0947 -0.0532,0.078 0.57629,-0.35871 1.13893,-0.73891 1.7084,-1.10836 1.05767,0.17382 2.13305,0.22995 3.20218,0.29421 0.736,0.0409 1.47284,0.0657 2.20995,0.0705 0.54697,0.004 1.09395,0.006 1.64092,0.008 0.30755,0.009 0.61601,-0.0201 0.92271,0.0153 0.0394,0.005 0.14699,0.002 0.11594,0.0265 -1.56394,1.24185 -0.99787,1.17601 -1.9026,1.20988 -1.33367,0.0788 -2.6701,0.0887 -4.00552,0.11431 -1.00978,0.0381 -2.02267,5.3e-4 -3.03152,0.0591 -0.82839,0.0379 -1.65909,0.0651 -2.464912,0.27365 -0.04439,0.0324 -0.179533,0.12679 -0.133176,0.0973 0.560396,-0.35706 1.098578,-0.75036 1.675538,-1.07999 0.0605,-0.0345 0.13939,-7.9e-4 0.20889,0.003 0.13978,0.009 0.27888,0.0264 0.41863,0.0355 0.43546,0.0285 0.72486,0.0328 1.1675,0.046 1.04142,0.0225 2.08312,0.0162 3.12461,0.003 0.40872,-0.005 0.81742,-0.0134 1.22619,-0.0133 0.87041,0.006 1.08969,-0.31946 -1.4547,1.16145 -0.0755,0.0439 -0.17457,-0.006 -0.26189,-0.008 -0.13306,-0.003 -0.26614,-0.005 -0.39921,-0.008 -1.07779,-0.001 -2.15819,-0.0443 -3.23479,0.0189 0,0 1.55225,-1.13699 1.55225,-1.13699 v 0 c 1.0796,-0.0199 2.15988,0.0153 3.23957,-0.0131 0.14025,-0.003 0.28051,-0.005 0.42075,-0.008 0.095,-0.002 0.35325,-0.0746 0.28505,-0.008 -1.36678,1.32716 -0.89754,1.16353 -1.74334,1.16234 -0.39887,0.001 -0.79772,-0.004 -1.19655,-0.008 -1.02773,-0.0125 -2.0555,-0.0227 -3.08318,-0.0391 -0.37282,-0.008 -0.82752,-0.0139 -1.203074,-0.0322 -0.152771,-0.007 -0.306623,-0.008 -0.457833,-0.0306 -0.104341,-0.0159 -0.378862,-0.0103 -0.304858,-0.0855 1.049615,-1.06729 0.970705,-1.02723 1.697305,-1.23115 0.81816,-0.158 1.64969,-0.19962 2.48057,-0.2423 0.99055,-0.0308 1.98235,0.0144 2.97321,-0.01 1.35766,-0.0165 2.72114,-0.0287 4.07045,-0.19338 0.0814,-0.0209 0.30846,-0.11692 0.24422,-0.0627 -0.49069,0.41398 -1.01596,0.78581 -1.54032,1.1562 -0.0202,0.0142 -0.0475,-0.0148 -0.072,-0.0173 -0.29991,-0.0301 -0.60166,-0.009 -0.90225,-0.0149 -0.55351,0.003 -1.10709,0.0102 -1.66057,0.001 -0.71834,-0.0237 -1.43549,-0.0698 -2.15223,-0.12288 -0.65135,-0.0459 -1.30262,-0.093 -1.95399,-0.13863 -0.31099,-0.0218 -0.73823,-0.0424 -1.05558,-0.0945 -0.10869,-0.0179 -0.21447,-0.0503 -0.3217,-0.0755 0.49936,-0.40814 0.98802,-0.82972 1.49807,-1.22441 0.0218,-0.0169 0.0552,0.002 0.0827,10e-4 0.068,-0.003 0.13569,-0.011 0.20366,-0.0144 0.30723,-0.0152 0.61428,-0.005 0.92171,-0.007 0.69417,7.9e-4 1.38834,-0.003 2.0825,0.002 0.87865,0.004 1.75745,0.0111 2.63598,-0.008 0.14111,-0.004 0.2823,-0.006 0.42332,-0.0123 0.11376,-0.005 0.43064,-0.0917 0.34094,-0.0216 -0.47615,0.37232 -1.06709,0.58116 -1.53923,0.95855 -0.0553,0.0442 0.13383,0.0963 0.13103,0.16704 -0.006,0.13936 -0.54135,-0.37921 -0.41558,-0.0486 -0.7191,-0.0447 -1.43841,-0.0351 -2.1586,-0.0284 -0.66828,1.1e-4 -1.33652,-0.003 -2.00477,-0.011 -0.92089,-0.005 -1.84278,0.007 -2.76292,-0.0317 -0.84289,-0.20893 -0.32371,-0.0218 1.35754,-1.23626 0.0271,-0.0196 0.0652,-0.0145 0.0979,-0.0213 0.25389,-0.0535 0.50914,-0.0998 0.76535,-0.14083 0.77346,-0.15554 1.53599,-0.36463 2.31665,-0.48471 0.99607,-0.14379 1.99398,-0.12716 2.99712,-0.0626 1.06562,0.042 2.13129,0.0649 3.19771,0.0375 0.0993,-10e-4 0.19865,-0.003 0.29798,-0.004 0.0669,-2e-4 0.25052,-0.0425 0.20069,0.002 -1.47587,1.32217 -0.95042,1.09718 -1.88276,1.22687 -0.4743,0.093 -0.93505,0.24416 -1.37269,0.45036 -0.87702,0.40832 -1.76089,0.80125 -2.64248,1.19961 -0.16678,0.0709 -0.33416,0.14032 -0.50033,0.21258 -0.16932,0.0736 -0.33869,0.14724 -0.5061,0.22509 -0.1525,0.0709 -0.59476,0.31241 -0.45348,0.22117 0.4038,-0.2608 0.82857,-0.48762 1.24304,-0.73109 0.10996,-0.0646 -0.22098,0.12743 -0.32949,0.19444 -0.092,0.0568 -0.1813,0.11796 -0.27195,0.17694 -0.3062,0.23219 -0.67975,0.49292 -0.71872,0.90793 0.0706,0.3818 0.36326,0.3272 0.68391,0.32884 0.48155,0.001 0.96319,0.003 1.44466,-0.007 0.45231,-0.0136 0.90635,-0.0327 1.35167,-0.11972 0.47266,-0.0902 0.95062,-0.1614 1.40632,-0.32271 0.29497,-0.10507 0.58131,-0.21914 0.86722,-0.347 0.10489,-0.0469 0.41078,-0.20417 0.31385,-0.14249 -0.0812,0.0517 -2.1047,1.24746 -1.02167,0.60731 0.77514,-0.48468 1.50419,-1.03509 2.21083,-1.61511 0.34334,-0.29453 0.44713,-0.37246 0.76256,-0.68484 0.13328,-0.13199 0.41708,-0.37532 0.46872,-0.58289 0.006,-0.0259 -0.009,-0.0525 -0.0136,-0.0787 -0.22689,-0.13952 -0.50155,-0.1402 -0.76204,-0.16734 -0.49418,-0.0515 -0.9899,-0.091 -1.4808,-0.17073 -1.10089,-0.18431 -2.18622,-0.46467 -3.29992,-0.5607 -0.623,-0.0128 -1.24609,-0.001 -1.86921,-0.007 -0.54079,0.002 -1.08159,0.004 -1.62238,0.004 -0.49246,-0.002 -0.98503,-0.004 -1.47739,0.008 0,0 1.60405,-1.1654 1.60405,-1.1654 z"
       inkscape:connector-curvature="0" />
    <path
       style="fill:#0000ff;stroke-width:0.26458332"
       id="path3829"
       d="m 118.24845,82.022011 c 0.37627,0.11518 0.76702,0.16309 1.15793,0.19247 0.41876,0.0256 0.83423,0.0473 1.24601,-0.0422 0.63733,-0.25787 1.67596,-0.8912 -1.04452,0.64268 -0.0622,0.035 0.12263,-0.073 0.1831,-0.11083 0.11445,-0.0717 0.22816,-0.14942 0.34019,-0.2247 0.86967,-0.58956 1.74963,-1.1989 2.73631,-1.56976 0.14989,-0.007 0.54152,-0.2222 0.6782,-0.13648 0.10785,0.0676 0.11299,0.18115 0.13807,0.2876 -0.0447,0.41552 -0.19596,0.81341 -0.32134,1.2103 -0.11561,0.36602 -0.25111,0.72127 -0.42405,1.06386 -0.21383,0.43283 -0.56696,0.74591 -0.94406,1.03351 -0.79431,0.58623 -1.67361,1.0341 -2.52781,1.52762 -0.50301,0.29061 1.00716,-0.57928 1.51073,-0.86892 -0.90525,0.47956 -1.80096,1.11234 -2.79245,1.44609 -0.28906,0.0898 -0.56045,0.20402 -0.86397,0.23711 -0.32979,0.0452 -0.53937,-0.0844 -0.42952,-0.43929 0.25538,-0.3738 0.5991,-0.68244 0.93852,-0.97904 0.42397,-0.33892 0.87186,-0.64604 1.3251,-0.94406 0.90699,-0.549 1.77183,-1.21059 2.75865,-1.6037 0.29358,-0.14366 0.59506,-0.25269 0.91519,-0.31849 0.14096,-0.068 0.30779,-0.0682 0.45191,-0.12258 0.0472,-0.0178 0.17644,-0.0977 0.13269,-0.0726 -1.65414,0.94701 -1.66343,0.30525 -1.62697,1.01053 -1.21652,0.0552 -2.4076,0.33361 -3.58333,0.63657 -0.25441,0.0692 -0.50894,0.13795 -0.76324,0.20757 -0.54968,0.1505 -1.12172,0.27493 -1.66,0.4647 -0.10408,0.0367 -0.39902,0.18737 -0.30394,0.13131 0.5096,-0.30046 1.0329,-0.57707 1.54935,-0.86561 -0.004,-0.0413 -0.0449,-0.0977 -0.0127,-0.12387 0.0572,-0.0466 0.14441,-0.0305 0.21719,-0.0425 0.13178,-0.0218 0.26448,-0.0377 0.39633,-0.059 0.63912,-0.10349 1.27227,-0.23814 1.9066,-0.36694 1.16899,-0.24705 2.32755,-0.53476 3.48421,-0.83266 0.40951,-0.11999 0.8248,-0.23272 1.22089,-0.39269 0.0354,-0.0196 0.14032,-0.0803 0.10608,-0.0588 -0.55364,0.34762 -1.11993,0.67547 -1.66441,1.03726 -0.0377,0.0251 -0.0306,0.0952 -0.0709,0.11581 -0.0915,0.0469 -0.1996,0.0491 -0.29933,0.0739 -0.82893,0.20658 -0.25891,0.0688 -1.23303,0.29826 -1.61977,0.44709 -3.20958,0.99915 -4.7639,1.63677 -0.12885,0.0655 -0.512,0.26824 -0.38657,0.19643 0.49623,-0.27579 0.99246,-0.55159 1.48868,-0.82738 -0.009,0.005 -0.0366,0.0222 -0.0282,0.0156 0.0247,-0.0194 0.0466,-0.0469 0.0772,-0.0541 0.0916,-0.0217 0.18733,-0.0198 0.28087,-0.0308 0.14706,-0.0173 0.29396,-0.036 0.44094,-0.054 1.19189,-0.241 2.38427,-0.49759 3.5403,-0.87844 1.09869,-0.38869 0.58688,-0.53621 -1.13247,0.73498 -0.0681,0.0503 0.0837,0.18033 0.0374,0.25127 -0.0443,0.068 -0.15766,0.0388 -0.23718,0.0551 -0.1177,0.0241 -0.23623,0.044 -0.35434,0.066 -0.43873,0.11822 -0.88469,0.21401 -1.32049,0.34309 -0.11042,0.0327 -0.42507,0.17181 -0.32703,0.11139 1.64252,-1.01218 1.61151,-0.27069 1.57398,-1.10182 0.75313,-0.0785 1.51311,-0.13411 2.25581,-0.28722 0.22574,-0.0981 0.27585,-0.15773 0.39475,0.1065 0.0415,-0.10993 -0.004,0.17706 -0.0314,0.13827 -0.0193,-0.0278 -0.0411,-0.0769 -0.0166,-0.10018 0.0284,-0.0269 0.0783,0.002 0.11738,0.005 0.69089,0.0466 -0.33261,-0.0117 0.55746,0.0364 0.618,0.067 1.26968,-0.0876 1.86194,0.133 0.37601,0.25388 0.28521,0.55018 0.0301,0.85215 -0.26445,0.28312 -0.58866,0.49431 -0.91758,0.69379 -1.39797,0.87323 -1.57071,1.12836 -2.83052,1.21861 -0.48358,-0.008 -0.89056,-0.25704 -1.28137,-0.51562 -0.41665,-0.3205 -0.80032,-0.67909 -1.20892,-1.00934 -0.99113,-0.73879 0.67779,-1.69414 1.67756,-1.51172 0.429,0.0507 0.7862,0.31006 1.11651,0.57 0.30638,0.31282 0.4582,0.73513 0.67251,1.11054 0.21339,0.34239 0.44361,0.67154 0.75537,0.93025 0.38136,0.29257 0.79868,0.55436 1.24951,0.72489 0.18033,0.034 0.39346,0.15275 0.58432,0.10629 0.0509,-0.0124 0.18118,-0.10528 0.13485,-0.0808 -1.62448,0.8589 -1.82977,1.36244 -1.45232,0.62147 0.0282,-0.12237 0.0703,-0.24235 0.0845,-0.3671 0.11337,-0.99013 -0.22474,-1.96488 -0.54821,-2.88116 -0.19248,-0.521 -0.40917,-1.03188 -0.64267,-1.5356 -0.0593,-0.12791 -0.20175,-0.47884 -0.33109,-0.59516 -0.0356,-0.032 -0.0927,-0.024 -0.1391,-0.0361 0.52501,-0.26317 1.03036,-0.56989 1.57503,-0.7895 0.0896,-0.0361 -0.13546,0.14144 -0.1802,0.2271 -0.0654,0.12528 -0.10887,0.26168 -0.14627,0.39799 -0.1698,0.61885 -0.20396,1.26859 -0.25584,1.90436 -0.016,0.9836 -0.15126,1.9885 10e-4,2.96719 0.0401,0.12298 0.076,0.31077 0.23986,0.32833 0.1582,0.017 0.33558,-0.12335 0.29108,-0.0984 -0.5042,0.28277 -1.00944,0.56367 -1.51416,0.84551 0.61556,-0.43253 0.67363,-1.19158 0.75497,-1.88058 0.0364,-0.47873 0.07,-0.95974 0.0652,-1.44028 -0.002,-0.16621 0.0258,-0.45084 -0.12469,-0.57651 4.11972,-1.97122 1.82489,-1.07467 1.49922,-0.64446 -0.067,0.0885 -0.11657,0.18915 -0.16858,0.28722 -0.1922,0.36241 -0.34297,0.74477 -0.49646,1.12443 -0.10236,0.28149 -0.2211,0.56575 -0.25069,0.86725 -0.003,0.035 0.004,0.14048 0.006,0.10535 0.0314,-0.77612 -0.64868,0.2039 -1.6028,0.71677 0.62054,-0.6802 1.00921,-1.55243 1.39439,-2.3804 0.17681,-0.41316 0.33729,-0.83234 0.48294,-1.25732 0.0228,-0.0666 0.0451,-0.13343 0.0682,-0.19995 0.0106,-0.0305 0.004,-0.0762 0.0329,-0.0912 0.58999,-0.3073 1.19956,-0.57546 1.79934,-0.86319 0.007,0.0736 0.0234,0.14691 0.0217,0.22087 -0.004,0.18497 -0.0651,0.41446 -0.10823,0.58828 -0.0794,0.32016 -0.16541,0.6382 -0.24121,0.95932 -0.19627,0.82088 -0.0136,0.47582 -1.82092,0.96082 -0.0793,0.0213 0.0308,-0.16133 0.0424,-0.24259 0.0354,-0.24797 0.0451,-0.41227 0.0663,-0.66547 0.007,-0.11801 0.0363,-0.58245 0.0344,-0.70844 -8e-4,-0.0452 0.003,-0.32739 -0.0847,-0.39132 -0.0197,-0.0144 -0.0855,0.047 -0.0638,0.0359 0.53501,-0.2729 1.06911,-0.54759 1.60367,-0.82138 -0.0701,0.0736 -0.1493,0.13954 -0.21019,0.22093 -0.37992,0.50777 -0.66025,1.29052 -0.88958,1.88552 -0.0836,0.29289 -0.23749,0.58582 -0.24332,0.8962 -2.2e-4,0.0116 0.0149,-0.0395 0.004,-0.0346 -0.56747,0.26507 -1.12649,0.54788 -1.68973,0.82182 0.67663,-0.60177 1.05711,-1.47223 1.45301,-2.269 0.46467,-0.97756 0.73889,-2.02132 0.88519,-3.08953 0.0131,-0.0751 0.10104,-0.83189 -0.0971,-0.81918 -0.0413,0.003 -0.0736,0.0381 -0.10944,0.0588 -0.057,0.0329 -0.11278,0.0679 -0.16917,0.10186 0.47327,-0.26333 0.92803,-0.56308 1.4198,-0.79 0.12522,-0.0578 -0.21336,0.17599 -0.30751,0.27677 -0.1087,0.11635 -0.20501,0.24402 -0.29907,0.37251 -0.36473,0.49824 -0.66022,1.04261 -0.96139,1.57996 -0.43425,0.90201 -0.87032,1.83736 -1.06656,2.82601 -0.0367,0.36831 0.10257,0.38387 0.3893,0.23059 -3.20656,1.7022 -1.62273,1.14393 -1.29035,0.59278 0.0633,-0.10499 0.12503,-0.27483 0.16984,-0.38823 0,0 1.7815,-0.82486 1.7815,-0.82486 v 0 c -0.0547,0.13869 -0.0967,0.28236 -0.15471,0.4197 -0.34054,0.80588 -1.38045,1.02779 -2.07138,1.40585 -0.43457,0.0436 -0.61433,-0.14696 -0.57986,-0.5861 0.0839,-0.38849 0.21478,-0.74578 0.35446,-1.11823 0.22772,-0.60721 0.46063,-1.21318 0.75627,-1.79163 0.29261,-0.53735 0.57907,-1.07923 0.91752,-1.58985 0.0742,-0.11191 0.41174,-0.60837 0.55065,-0.6985 0.62677,-0.4067 1.29134,-0.75193 1.937,-1.12789 0.0746,-0.0159 0.14764,-0.051 0.22386,-0.0477 0.50363,0.0217 0.36945,0.7662 0.33378,1.06762 -0.15945,1.09052 -0.44776,2.15427 -0.90015,3.16237 -0.38241,0.80128 -0.75089,1.62568 -1.32076,2.31532 -0.61964,0.315 -1.22096,0.66896 -1.8589,0.94501 -0.0837,0.0362 -0.0761,-0.17675 -0.0611,-0.26673 0.0468,-0.28186 0.16536,-0.54965 0.25284,-0.81933 0.29506,-0.74979 0.59798,-1.50532 1.0155,-2.19644 0.62537,-0.33664 1.22785,-0.71977 1.87611,-1.00991 0.0533,-0.0239 0.10374,0.061 0.13731,0.10878 0.21427,0.3049 0.0389,0.8566 0.0626,1.19808 -0.003,0.0544 -0.0532,0.90474 -0.0625,0.91104 -2.45671,1.66192 -2.00792,1.54236 -1.70898,0.74444 0.13018,-0.52929 0.29344,-1.05308 0.36524,-1.59384 0.57896,-0.31595 1.15441,-0.63844 1.73689,-0.94786 0.0283,-0.015 -0.055,0.0364 -0.0721,0.0635 -0.0402,0.0638 -0.068,0.1348 -0.0968,0.2045 -0.17671,0.42763 -0.32683,0.86694 -0.515,1.29011 -0.37924,0.82958 -0.76429,1.67049 -1.28653,2.42118 -0.61063,0.35517 -1.19254,0.76507 -1.83187,1.06553 -0.17938,0.0843 -0.16145,-0.25067 -0.15847,-0.28356 0.029,-0.32016 0.1532,-0.621 0.26321,-0.91923 0.15039,-0.38229 0.31026,-0.75811 0.47562,-1.1341 0.0239,-0.0544 0.20868,-0.50188 0.25171,-0.5264 0.60969,-0.34737 1.25971,-0.6186 1.88957,-0.9279 0.14179,0.23512 0.13493,0.44864 0.13105,0.72369 -0.007,0.48598 -0.0407,0.97168 -0.0653,1.4569 -0.0651,0.7175 -0.0915,1.48654 -0.63421,2.024 -0.69786,0.39481 -1.88715,1.51379 -2.42244,0.90597 -0.0933,-0.1059 -0.1137,-0.23628 -0.1521,-0.36628 -0.11883,-1.00807 0.0482,-2.03001 0.0537,-3.04034 0.0421,-0.63958 0.071,-1.2882 0.19026,-1.91968 0.002,-0.0129 0.15078,-0.6826 0.23006,-0.73362 0.6036,-0.38846 1.27153,-0.66642 1.9073,-0.99963 0.057,0.0443 0.12527,0.077 0.17104,0.1328 0.13164,0.16054 0.23936,0.46066 0.31438,0.63852 0.21805,0.51693 0.42755,1.03721 0.61504,1.56621 0.38726,1.06598 0.76897,2.18085 0.5996,3.33171 -0.0248,0.0876 -0.002,0.20836 -0.0744,0.26295 -0.61349,0.45932 -1.21839,1.19044 -1.98422,1.16143 -0.21064,-0.008 -0.41213,-0.0957 -0.60917,-0.15914 -0.45971,-0.19921 -0.88948,-0.47041 -1.28526,-0.77669 -0.32212,-0.28248 -0.57402,-0.61905 -0.79207,-0.98753 -0.19998,-0.35297 -0.34484,-0.7523 -0.63378,-1.04332 -0.31433,-0.239 -0.64765,-0.46113 -1.05789,-0.46281 -0.76227,0.0975 -0.0344,0.0231 1.45685,-0.94965 0.0226,-0.0147 -0.0524,-0.0292 -0.078,-0.021 -0.0523,0.0166 0.0225,0.11325 0.06,0.15342 0.0454,0.0488 0.0984,0.09 0.14754,0.13497 0.39403,0.33379 0.77254,0.68648 1.18839,0.99334 0.3775,0.22977 0.76473,0.44076 1.22226,0.40155 0.19913,-0.0197 0.39946,-0.0386 0.59355,-0.0905 0.64327,-0.17173 1.69505,-1.01713 -1.18042,0.75049 0.32476,-0.19613 0.66595,-0.37757 0.93505,-0.65016 0.16348,-0.13408 0.46586,-0.33928 0.15976,-0.50094 -0.5808,-0.1731 -1.21172,-0.0384 -1.80753,-0.10459 -0.15675,-0.007 -0.62992,0.0133 -0.77301,-0.0936 -0.0586,-0.0438 -0.10222,-0.10765 -0.13534,-0.17293 -0.0129,-0.0254 0.0561,-0.0942 0.0792,-0.0318 0.14451,0.16543 -0.0573,0.12617 -0.18422,0.15845 -0.76563,0.0975 -1.53265,0.19299 -2.30072,0.26572 -0.0756,-0.0761 -0.31092,-0.16168 -0.2268,-0.2282 1.19423,-0.94428 2.1146,-1.12167 3.4512,-1.44928 0.12224,-0.0284 0.24491,-0.055 0.36674,-0.0851 0.0884,-0.0219 0.17592,-0.0946 0.2638,-0.0708 0.10026,0.0272 0.3148,0.14033 0.23408,0.20572 -0.83225,0.67423 -1.38572,0.89975 -2.22888,1.18042 -1.17164,0.34729 -2.36714,0.61145 -3.56454,0.853 -0.14543,0.0175 -0.63907,0.1011 -0.82244,0.0463 -0.13136,-0.0392 -0.34612,-0.25912 -0.2341,-0.33816 1.14756,-0.80964 1.33519,-0.87612 2.20196,-1.26366 1.56212,-0.60203 3.14676,-1.14649 4.75864,-1.60031 0.24436,-0.0631 0.48896,-0.12519 0.73309,-0.18918 0.0165,-0.004 0.77922,-0.22633 0.91926,-0.21296 0.0893,0.009 0.30924,0.0587 0.24182,0.11783 -1.01749,0.89206 -1.07069,0.90217 -1.7655,1.16268 -0.39774,0.1311 -0.79636,0.25951 -1.20489,0.35367 -1.13906,0.27132 -2.28251,0.52201 -3.42504,0.77836 -0.65332,0.13809 -1.30644,0.29185 -1.96638,0.39624 -0.13277,0.021 -0.58618,0.10967 -0.75169,0.0182 -0.0753,-0.0416 -0.0949,-0.14349 -0.14228,-0.21523 0.60374,-0.35411 1.19861,-0.72382 1.81123,-1.06234 0.11073,-0.0612 0.65712,-0.20013 0.72386,-0.21764 0.64548,-0.16929 1.29307,-0.33069 1.93711,-0.50553 0.78414,-0.19678 1.57047,-0.38429 2.36831,-0.51879 0.28043,-0.0473 0.7964,-0.12504 1.10477,-0.1099 0.11373,0.006 0.224,0.041 0.336,0.0616 0.0471,0.0668 0.20554,0.15001 0.14122,0.20043 -0.88067,0.69035 -1.43677,1.01126 -2.35446,1.23007 -0.30885,0.0849 -0.60123,0.21308 -0.89151,0.34764 -0.64037,0.32806 -0.51147,0.26531 1.38215,-0.81495 0.0556,-0.0317 -0.10398,0.0748 -0.15847,0.10841 -0.20555,0.1266 -0.41969,0.24034 -0.62126,0.37398 -0.44694,0.2997 -0.90066,0.58937 -1.32378,0.9232 -0.34765,0.26271 -0.65118,0.57923 -0.94642,0.89907 -0.25141,0.2445 0.0587,-0.035 -0.11173,0.0731 -0.0176,0.0112 0.0398,0.0159 0.0607,0.0156 0.10868,-10e-4 0.13444,-0.009 0.25083,-0.0261 0.28518,-0.0636 0.55514,-0.17443 0.83386,-0.26087 0.72963,-0.29051 2.37289,-1.15806 -0.59196,0.47109 0.6188,-0.35721 1.23173,-0.7248 1.8564,-1.07165 0.51236,-0.28448 -1.01219,0.59098 -1.5194,0.88454 -0.0575,0.0333 0.11468,-0.0674 0.17032,-0.10374 0.11356,-0.0742 0.22715,-0.1484 0.33994,-0.22379 0.0629,-0.042 0.12305,-0.0879 0.18457,-0.1319 0.38133,-0.24928 0.74543,-0.53831 0.96495,-0.94655 0.19696,-0.32441 0.32213,-0.67592 0.44955,-1.03229 0.11797,-0.37433 0.24015,-0.74736 0.3352,-1.12816 0.005,-0.0166 0.007,-0.0352 0.0158,-0.0499 0.003,-0.005 0.0113,0.0135 0.006,0.0153 -0.0312,0.0111 -0.0655,0.01 -0.0977,0.0174 -0.17853,0.0414 -0.35241,0.10213 -0.52468,0.16371 -0.62328,0.27879 -1.61095,0.87781 1.12807,-0.69013 0.0546,-0.0312 -0.10462,0.0699 -0.15761,0.1038 -0.27751,0.17755 -0.0567,0.0251 -0.33425,0.22365 -0.90732,0.60898 -1.8159,1.2905 -2.87473,1.58905 -0.42431,0.055 -0.85061,0.0382 -1.27636,0.002 -0.40661,-0.0388 -0.80952,-0.10597 -1.20297,-0.218 0,0 1.64244,-1.11438 1.64244,-1.11438 z"
       inkscape:connector-curvature="0" />
    <path
       style="fill:#0000ff;stroke-width:0.26458332"
       id="path3831"
       d="m 129.70721,81.407261 c -0.0122,0.37396 -0.007,0.74825 -0.005,1.12234 5.3e-4,0.32655 8e-4,0.65309 0.002,0.97964 5.3e-4,0.32479 -0.002,0.64958 -0.002,0.97437 0.002,0.0396 0.003,0.0792 0.005,0.11883 0.002,0.006 0.01,0.0234 0.007,0.0176 -0.33491,-0.7332 0.0365,-0.15383 -1.72709,0.81387 -0.0288,0.0158 0.0399,-0.0526 0.0552,-0.0816 0.0222,-0.0419 0.0381,-0.087 0.0572,-0.13044 0.14699,-0.33536 0.24254,-0.6861 0.33073,-1.04009 0.0971,-0.31286 0.13483,-0.63713 0.18135,-0.95978 0.0625,-0.38768 0.0855,-0.77657 0.18893,-1.15626 0.11826,-0.37432 0.17338,-0.76199 0.19698,-1.15259 -5.3e-4,-0.0276 -0.0262,-0.0699 -0.002,-0.0827 0.58202,-0.30439 1.15891,-0.63078 1.77916,-0.84685 0.0723,-0.0252 -0.005,0.1531 -0.007,0.22966 -0.003,0.11877 -0.007,0.23754 -0.01,0.35634 -0.009,0.38276 -0.0103,0.60454 -0.0152,0.99583 -0.0146,0.97537 -2.7e-4,1.95079 0.0148,2.92605 0.002,0.13556 0.001,0.37267 0.0216,0.51392 0.007,0.0466 -0.009,0.14511 0.0369,0.13652 0.0483,-0.009 0.062,-0.1661 0.0169,-0.1465 -0.54645,0.23751 -1.0229,0.62816 -1.58432,0.82775 -0.1122,0.0399 0.10511,-0.21371 0.15766,-0.32056 0.43455,-1.34652 0.80324,-2.71419 1.19316,-4.0744 0.12812,-0.49686 0.28291,-0.98681 0.45658,-1.46956 0.0405,-0.11265 0.0816,-0.22514 0.12678,-0.33602 0.0286,-0.0703 0.0302,-0.16673 0.0944,-0.20725 0.57442,-0.36261 1.19111,-0.65347 1.78667,-0.98021 0.0398,0.0967 0.0976,0.18777 0.11945,0.29002 0.0412,0.19272 0.051,0.92867 0.0534,1.06039 0.0142,0.77253 0.0153,1.54541 0.0248,2.318 0.0337,0.54545 -0.018,1.09796 0.0476,1.64204 0.008,0.0694 -0.007,0.16169 0.0485,0.20389 0.0408,0.0309 0.0671,-0.17123 0.0196,-0.15225 -0.53878,0.21517 -1.04118,0.51209 -1.56177,0.76814 0.44257,-1.04467 0.59327,-2.18227 0.72354,-3.30091 0.0961,-1.04034 -0.0909,-0.89419 1.82447,-1.28197 0.11605,-0.0235 0.003,0.2368 0.003,0.3552 -2.6e-4,0.32879 -0.004,0.65756 -0.006,0.98634 0.004,0.51026 -0.0154,1.02018 -0.0323,1.53003 -0.003,0.0901 -0.008,0.18008 -0.009,0.27018 -2.7e-4,0.0392 0.0401,0.0993 0.005,0.11762 -0.57517,0.30383 -1.18179,0.54398 -1.77268,0.81597 0.20874,-0.69605 0.24459,-1.43824 0.29428,-2.16045 0.005,-0.1008 0.0108,-0.20157 0.015,-0.30242 0.003,-0.0636 0.004,-0.12727 0.006,-0.19092 7.9e-4,-0.0327 0.003,-0.0654 0.001,-0.0981 -5.3e-4,-0.0121 -0.0178,-0.0303 -0.007,-0.0357 1.81412,-0.89249 1.72438,-1.49708 1.80046,-0.75497 0.009,0.0283 0.0162,0.12907 0.0826,0.11812 0.007,-0.001 0.17868,-0.1225 0.16103,-0.11291 -1.58805,0.86315 -1.98453,1.30598 -1.43761,0.73268 0.17495,-0.26173 0.26805,-0.56512 0.38647,-0.85401 0.0162,-0.0395 0.0149,-0.0962 0.0522,-0.11704 0.58603,-0.32762 1.19618,-0.61013 1.79427,-0.91519 0.19033,0.50015 0.0706,1.05029 0.16239,1.56718 0.19531,-0.63942 -0.0456,0.17085 -1.71985,0.81248 -0.0592,0.0227 0.0241,-0.12458 0.0319,-0.18748 0.0325,-0.26169 0.0374,-0.52692 0.046,-0.79011 0.006,-0.93443 -0.15328,-0.43012 1.76802,-1.14056 0.0629,-0.0233 -0.0659,0.11747 -0.09,0.1801 -0.0532,0.13827 -0.25133,0.77851 -0.28364,0.88142 -0.15996,0.51586 -0.31517,1.03304 -0.46512,1.55188 -0.067,0.23192 -0.12713,0.4612 -0.22169,0.68317 -1.43044,0.85849 -1.74933,1.54105 -1.88637,0.5369 -0.026,-0.19032 -0.0551,-0.37873 -0.0758,-0.56985 -0.0969,-0.8249 0.30139,-1.56612 0.67454,-2.27049 0.10794,-0.1866 0.22743,-0.36697 0.32381,-0.55978 0.87424,-1.74896 1.47577,-3.62489 2.0444,-5.48984 0.36946,-1.21712 0.33377,-1.47731 2.14121,-1.84864 0.15858,-0.0326 0.0541,0.32202 0.0447,0.48365 -0.0231,0.39534 -0.27341,1.52399 -0.33471,1.82232 -0.43474,1.85795 -0.87899,3.71514 -1.22318,5.5926 -0.12819,0.69925 -0.28533,1.703 -0.40005,2.4193 -0.045,0.30432 -0.0917,0.60839 -0.13502,0.91295 -0.0391,0.27452 -0.1315,0.91014 -0.14471,1.22667 -0.004,0.0862 0.0901,0.21435 0.0159,0.25846 -2.11245,1.25617 -2.01673,1.20112 -1.56225,0.52532 0.40352,-1.12213 0.54508,-2.31844 0.66595,-3.49859 0.0608,-0.78791 0.0239,-1.57794 -0.0104,-2.36598 -0.0201,-0.58275 -0.0191,-1.1659 -0.0258,-1.74888 -2.4e-4,-0.0978 2.7e-4,-0.19571 -7.9e-4,-0.29355 -2e-4,-0.0188 -0.0102,-0.51531 -0.006,-0.51754 1.82738,-1.03348 1.46697,-1.49503 1.92123,-0.73894 0.32539,0.68143 0.57263,1.39615 0.78449,2.11986 0.16866,0.49494 0.2579,1.0941 0.67699,1.44724 0.12669,0.0549 0.28293,0.15359 0.42551,0.0793 0.0395,-0.0206 0.1353,-0.11405 0.0959,-0.0932 -1.61094,0.85013 -1.86007,1.42548 -1.49937,0.70829 0.13379,-0.46478 0.15222,-0.95476 0.10409,-1.43356 -0.0135,-0.19963 -0.13482,-0.31584 -0.24413,-0.46584 -0.0798,-0.10948 -0.12269,-0.19294 -0.19045,-0.31169 -0.12998,-0.1842 -0.20615,-0.41366 -0.3545,-0.5853 -0.0413,-0.0478 -0.0889,-0.097 -0.14857,-0.11771 -0.0401,-0.0139 -0.16287,0.0427 -0.1255,0.0225 0.51857,-0.28098 1.04958,-0.53835 1.57437,-0.80753 -0.0555,0.0865 -0.1237,0.16607 -0.16658,0.25948 -0.2098,0.45706 -0.27689,0.99021 -0.36506,1.47884 -0.13927,0.77179 -0.0841,0.45601 -0.21021,1.21486 -0.10237,0.44389 -0.0934,0.91038 -0.19692,1.3538 -0.0171,0.0731 -0.014,0.1724 -0.0784,0.21101 -1.88775,1.13289 -1.45393,1.48285 -2.10414,0.63688 -0.47508,-0.83171 -0.90786,-1.68679 -1.36633,-2.52796 -0.12593,-0.23105 -0.24065,-0.46849 -0.37635,-0.69394 -0.1067,-0.17727 -0.23327,-0.34179 -0.34991,-0.51269 -0.0472,-0.0472 -0.32582,-0.41576 -0.51022,-0.36125 -0.0645,0.0191 -0.17642,0.19284 -0.11462,0.16619 0.52845,-0.22789 0.98842,-0.61606 1.53984,-0.7808 0.116,-0.0347 -0.0738,0.23114 -0.0975,0.34988 -0.0292,0.14683 -0.0404,0.29668 -0.0606,0.44503 -0.0353,0.78595 -0.13409,1.59461 0.009,2.37513 0.0158,0.0343 0.0207,0.0763 0.0474,0.10303 0.009,0.009 0.0437,-0.0296 0.0319,-0.0236 -0.56369,0.28297 -1.1113,0.59959 -1.68802,0.85498 -0.0487,0.0216 0.0581,-0.0905 0.0754,-0.1409 0.0524,-0.15266 0.0743,-0.38358 0.095,-0.53673 0.009,-0.10799 0.02,-0.21584 0.0274,-0.32397 0.01,-0.14731 0.0163,-0.30586 0.015,-0.45508 -2e-4,-0.0242 -0.0259,-0.0626 -0.004,-0.0725 1.84597,-0.82992 1.77859,-1.35053 1.76935,-0.48506 -0.003,0.4426 0.004,0.88519 0.003,1.32778 0.0395,0.49675 -0.18871,0.74286 -0.53681,1.05374 -0.46134,0.36782 -0.9439,0.70718 -1.41945,1.05588 -0.69902,0.53782 -1.47795,0.93229 -2.2755,1.32611 -0.0468,0.0231 -0.10891,-0.006 -0.15308,-0.0336 -0.12474,-0.0788 -0.15688,-0.2064 -0.2108,-0.33072 -0.1075,-0.46966 -0.10084,-0.95547 -0.10491,-1.43458 -0.0142,-0.38764 0.039,-0.77944 -0.0412,-1.16144 -0.0205,-0.0292 -0.0337,-0.0653 -0.0616,-0.0875 -0.11969,-0.0951 -0.40893,0.15157 -0.30367,0.0951 1.49893,-0.80473 1.93684,-1.21563 1.2413,-0.61103 -0.30331,0.29244 -0.52728,0.64819 -0.75694,0.99751 0,0 -1.75735,0.77241 -1.75735,0.77241 v 0 c 0.22301,-0.35499 0.43961,-0.71666 0.71969,-1.03116 0.69977,-0.73853 0.29239,-0.35209 2.10411,-1.34398 0.23517,-0.12876 0.45772,0.0885 0.55072,0.2761 0.0906,0.39644 0.0524,0.79994 0.0512,1.20388 -0.002,0.45339 -0.0125,0.9132 0.0795,1.35935 0.015,0.037 0.0274,0.1371 0.0961,0.138 0.0333,5.2e-4 0.12542,-0.042 0.097,-0.0246 -2.81919,1.72201 -1.66492,1.01939 -1.08447,0.61068 0.46139,-0.35868 0.95424,-0.67666 1.41127,-1.04212 0.32039,-0.25031 0.63437,-0.44543 0.60203,-0.89539 0.001,-0.44313 0.0119,-0.88625 0.005,-1.32938 -0.0269,-0.90764 -0.0742,-0.25762 1.75644,-1.29342 0.0228,-0.0129 -0.0135,0.0506 -0.0172,0.0765 -0.009,0.0611 -0.0147,0.12251 -0.0199,0.18398 -0.01,0.11866 -0.0333,0.50803 -0.0399,0.61429 -0.004,0.0471 -0.064,0.74604 -0.0874,0.76141 -0.68851,0.45221 -1.66865,1.6654 -1.94577,0.76347 -0.12415,-0.80615 -0.002,-1.63053 0.003,-2.44129 0.0128,-0.15186 0.021,-0.30418 0.0385,-0.45557 0.0148,-0.12842 -0.0378,-0.29704 0.0583,-0.3834 0.53925,-0.48414 1.1612,-0.8696 1.77188,-1.25979 0.0603,-0.0385 0.14619,-0.031 0.21435,-0.009 0.21933,0.0696 0.37808,0.33559 0.50214,0.4887 0.73793,1.20951 1.32173,2.5119 2.12823,3.6805 0.62924,0.5849 0.32452,0.18667 -1.34871,1.16668 -0.061,0.0357 0.10689,-0.0994 0.13287,-0.1651 0.0457,-0.11551 0.0549,-0.24238 0.0767,-0.36466 0.0596,-0.3348 0.0912,-0.67424 0.16271,-1.00709 0.0251,-0.14731 0.18314,-1.07172 0.20589,-1.21255 0.0994,-0.61504 0.17783,-1.24283 0.41017,-1.82578 0.62126,-0.35613 1.21994,-0.75495 1.86379,-1.0684 0.0574,-0.0279 0.12376,0.0387 0.17604,0.0753 0.25599,0.17928 0.3636,0.50751 0.53877,0.75272 0.1703,0.28158 0.42397,0.51475 0.47358,0.85356 0.047,0.50343 0.0243,1.01403 -0.0673,1.51158 -0.21702,0.89359 -0.01,0.26191 -1.82813,1.3547 -0.17772,0.10681 -0.5097,-0.0896 -0.64882,-0.18313 -0.42005,-0.42555 -0.5161,-1.00594 -0.69681,-1.55909 -0.18892,-0.70839 -0.42741,-1.40674 -0.79199,-2.0462 -0.46517,-0.59519 -0.10014,-0.0689 1.59084,-1.08479 0.0198,-0.0119 -0.052,0.0146 -0.0587,0.0367 -0.0171,0.0566 -0.004,0.11817 -0.006,0.17727 -0.002,0.082 -0.003,0.16406 -0.004,0.2461 -5.3e-4,0.0976 7.9e-4,0.19524 0.001,0.29286 -5.3e-4,0.58097 0.008,1.1619 0.0265,1.7426 0.0174,0.80704 0.0251,1.615 -0.04,2.42054 -0.12281,1.18207 -0.27294,2.36962 -0.58424,3.51873 -0.19976,0.94088 -0.0391,0.61007 -1.94248,1.17665 -0.0963,0.0287 0.005,-0.20122 0.0167,-0.30104 0.0385,-0.32774 0.16048,-0.9813 0.21271,-1.2687 0.0565,-0.31082 0.11432,-0.62138 0.17149,-0.93207 0.49576,-2.67692 1.02592,-5.34612 1.60672,-8.00608 0.11064,-0.68099 0.19358,-1.06942 0.2395,-1.72394 0.007,-0.10087 -0.0817,-0.2399 -0.003,-0.30333 3.03209,-2.44187 1.69352,-1.2715 1.42659,-0.68017 -0.10166,0.22521 -0.17544,0.462 -0.26316,0.69299 -0.0749,0.22493 -0.66298,1.99107 -0.71062,2.12851 -0.43241,1.24765 -0.41349,1.14236 -0.87808,2.36872 -0.12579,0.33205 -0.22827,0.67353 -0.3726,0.99795 -0.0858,0.19286 -0.21042,0.36599 -0.31562,0.54899 -0.35094,0.65788 -0.74666,1.36245 -0.66199,2.13508 0.15995,1.29633 0.36467,0.62501 -1.608,1.70889 0.0308,-0.0149 0.0711,-0.018 0.0925,-0.0447 0.10408,-0.12991 0.20171,-0.46842 0.23984,-0.58785 0.1642,-0.51429 0.30884,-1.03498 0.46454,-1.55184 0.0125,-0.0446 0.21265,-0.75317 0.2337,-0.85466 0.0162,-0.0782 -0.0408,-0.19684 0.0276,-0.2379 2.12219,-1.27283 1.84252,-1.46543 1.80791,-0.52464 -0.008,0.26522 -0.0163,0.53037 -0.0263,0.79551 -0.003,0.0665 0.0471,0.16131 -0.007,0.19955 -1.72968,1.21396 -1.48368,1.66473 -1.81231,0.96607 -0.0303,-0.46271 -0.0134,-0.92895 -0.0817,-1.38901 0.56227,-0.32341 1.12454,-0.64681 1.68681,-0.97022 -0.0291,0.029 -0.0664,0.0517 -0.0874,0.087 -0.16444,0.27578 -0.20412,0.61749 -0.36091,0.89787 -0.46253,0.77532 -0.1123,0.25304 -1.93292,1.25845 -0.18955,0.10468 -0.38801,-0.13056 -0.43065,-0.2837 -0.20052,-0.75079 -0.059,-0.0882 1.75645,-1.04025 0.007,-0.004 -0.0175,0.006 -0.0202,0.0136 -0.0113,0.0327 -0.0147,0.0678 -0.0199,0.10207 -0.01,0.0662 -0.0185,0.13273 -0.0258,0.19933 -0.0113,0.10341 -0.0198,0.2071 -0.0297,0.31066 -0.0628,0.73387 -0.14067,1.46759 -0.20001,2.20074 -0.60455,0.29893 -1.19229,0.63459 -1.81365,0.89679 -0.0428,0.0181 0.0102,-0.0923 0.0164,-0.13839 0.0125,-0.093 0.0304,-0.18524 0.0398,-0.27856 0.0513,-0.50683 0.0617,-1.0179 0.0506,-1.52682 -0.005,-0.37941 -0.003,-0.59252 -0.0217,-0.96513 -0.005,-0.10831 -0.10668,-0.25606 -0.0226,-0.32455 2.20487,-1.79608 1.7571,-1.51074 1.62878,-0.47886 -0.15784,1.12504 -0.32481,2.25416 -0.6505,3.34514 -0.60302,0.40827 -1.17338,0.86954 -1.80908,1.2248 -0.16888,0.0944 -0.18244,-0.21848 -0.18922,-0.36618 -0.0256,-0.5588 0.0234,-1.11842 0.009,-1.6773 -0.004,-1.11635 0.005,-2.24062 -0.15625,-3.34768 0.53765,-0.32817 1.05673,-0.68891 1.61295,-0.98452 0.0687,-0.0365 -0.093,0.12582 -0.12804,0.19534 -0.0547,0.10848 -0.0948,0.2237 -0.13988,0.33647 -0.19427,0.48535 -0.37699,0.97646 -0.51144,1.48228 -0.41249,1.3434 -0.78628,2.69874 -1.12364,4.06289 -0.32441,0.97603 -0.0985,0.53551 -1.91526,1.50014 -0.0595,0.0316 -0.12848,-0.0577 -0.16795,-0.11232 -0.10543,-0.14575 -0.0286,-0.54706 -0.0489,-0.70857 0.0162,-0.98085 0.0322,-1.96186 0.0184,-2.94285 -0.006,-0.4406 -0.008,-0.88156 -0.0288,-1.3218 -0.003,-0.0673 -0.0694,-0.16461 -0.0131,-0.20178 0.5595,-0.36997 1.16867,-0.65988 1.76893,-0.95922 0.0263,-0.0131 -0.0124,0.0575 -0.0185,0.0863 -0.0315,0.40109 -0.058,0.80384 -0.17946,1.19067 -0.0121,0.0392 -0.0975,0.31106 -0.10555,0.35412 -0.048,0.25527 -0.0361,0.52295 -0.0927,0.77764 -0.0518,0.32754 -0.0654,0.66208 -0.17296,0.97953 -0.0999,0.35573 -0.17181,0.71791 -0.31067,1.06216 -0.0175,0.0422 -0.0381,0.0832 -0.0524,0.12653 -0.0129,0.0391 0.005,0.097 -0.0288,0.11995 -0.56395,0.37962 -1.13094,0.76078 -1.73701,1.06874 -0.0929,0.0472 -0.16333,-0.28878 -0.13131,-0.33281 -2.2e-4,-0.32419 -0.002,-0.64839 -0.002,-0.97258 0.001,-0.32716 0.001,-0.65432 0.002,-0.98147 0.002,-0.37227 0.007,-0.74475 -0.005,-1.11688 0,0 1.7666,-0.90013 1.7666,-0.90013 z"
       inkscape:connector-curvature="0" />
  </g>
</svg>
